# Blender 5.1.1
# www.blender.org
mtllib REF_Refri_Puerta_7.mtl
o REF_Refri_Puerta_7
v 5.777111 0.918498 1.353297
v 5.777111 2.492827 1.353297
v 5.777111 2.492826 0.707830
v 5.777111 0.918498 0.707830
v 5.783531 0.918498 1.353297
v 5.783531 0.918498 0.707830
v 5.783531 2.492827 0.707830
v 5.783531 2.578811 0.648504
v 5.783531 0.832513 0.648504
v 5.783533 0.832513 1.412625
v 5.768229 0.832513 0.648504
v 5.768229 2.578811 0.648504
v 5.768229 2.578811 1.412625
v 5.768229 2.492827 1.353297
v 5.768229 2.492827 0.707830
v 5.768229 0.918498 0.707830
v 5.774650 2.492827 0.707830
v 5.774650 2.492827 1.353297
v 5.774650 0.918498 1.353297
v 5.774650 0.918498 0.707830
v 5.768229 0.918498 1.353297
v 5.768229 0.832513 1.412625
v 5.783531 2.578811 1.412625
v 5.783531 2.492827 1.353297
v 5.719819 1.448878 0.674133
v 5.719819 1.448878 0.682768
v 5.750159 1.448878 0.674133
v 5.750159 1.452896 0.669809
v 5.750165 1.461363 0.669809
v 5.730681 1.461363 0.669809
v 5.750166 1.465380 0.674133
v 5.750166 1.465380 0.682768
v 5.734696 1.465380 0.674133
v 5.734696 1.815427 0.674133
v 5.734691 1.465380 0.682768
v 5.730681 1.819445 0.669809
v 5.723835 1.828187 0.669809
v 5.752032 1.819445 0.669809
v 5.752027 1.828186 0.669809
v 5.752032 1.815427 0.674133
v 5.752027 1.815427 0.682768
v 5.734691 1.815427 0.682768
v 5.730672 1.461363 0.687095
v 5.730672 1.819445 0.687095
v 5.723835 1.828187 0.687095
v 5.752024 1.819445 0.687095
v 5.752024 1.828186 0.687095
v 5.752024 1.832204 0.682768
v 5.752024 1.832204 0.674133
v 5.719819 1.832204 0.682768
v 5.719819 1.832204 0.674133
v 5.723835 1.452896 0.669809
v 5.723835 1.452896 0.687095
v 5.750166 1.461363 0.687095
v 5.750166 1.452896 0.687095
v 5.750165 1.448878 0.682768
vn -0.0000 -0.0000 1.0000
vn -0.0000 1.0000 -0.0000
vn -0.0000 0.7326 -0.6807
vn -0.0000 -1.0000 -0.0000
vn 1.0000 -0.0000 -0.0000
vn -1.0000 -0.0000 -0.0000
vn -0.0000 0.7328 0.6804
vn -0.0000 -0.0000 -1.0000
vn -0.0000 -0.7326 -0.6807
vn -0.6983 0.7158 -0.0092
vn 0.7327 -0.0000 0.6805
vn 0.7328 -0.0000 -0.6804
vn -0.0000 -0.7328 0.6804
vn -0.7327 -0.0000 -0.6805
vn -0.0000 0.7326 -0.6806
vn -0.1076 0.6801 0.7252
vn -0.7329 -0.0000 0.6803
vn -0.7071 0.0525 0.7051
vn 1.0000 -0.0000 0.0006
vn -0.0000 -0.7326 -0.6806
vn -0.1055 0.6780 0.7275
vn -0.6670 0.0156 0.7449
vn 0.1138 0.2414 0.9637
vt 0.837149 0.969981
vt 0.789103 0.971297
vt 0.788842 0.969975
vt 0.785130 0.970139
vt 0.788846 0.969064
vt 0.788840 0.969515
vt 0.782584 0.873570
vt 0.780819 0.974690
vt 0.780559 0.873575
vt 0.836510 0.966332
vt 0.839814 0.965530
vt 0.836776 0.967270
vt 0.789605 0.973320
vt 0.786489 0.973387
vt 0.789275 0.972141
vt 0.783105 0.974690
vt 0.784870 0.873570
vt 0.785130 0.974685
vt 0.864724 0.984110
vt 0.872574 0.995489
vt 0.771459 0.995487
vt 0.884245 0.995489
vt 0.892096 0.984110
vt 0.985362 0.995489
vt 0.875222 0.575039
vt 0.982279 0.569120
vt 0.878184 0.577398
vt 0.839735 0.972619
vt 0.836715 0.972219
vt 0.836904 0.971306
vt 0.045115 0.977277
vt 0.057106 0.748469
vt 0.049110 0.977443
vt 0.600070 0.505129
vt 0.780306 0.519243
vt 0.602113 0.509001
vt 0.837074 0.968576
vt 0.840801 0.968368
vt 0.837085 0.969050
vt 0.986091 0.752547
vt 0.879034 0.758467
vt 0.983129 0.750187
vt 0.785428 0.971170
vt 0.986090 0.566694
vt 0.836343 0.973524
vt 0.839291 0.973408
vt 0.838640 0.974690
vt 0.783043 0.516442
vt 0.776447 0.626188
vt 0.977518 0.775784
vt 0.985369 0.764406
vt 0.977512 0.984110
vt 0.837154 0.969507
vt 0.840674 0.970139
vt 0.789366 0.966427
vt 0.785937 0.965776
vt 0.789158 0.967323
vt 0.786067 0.972621
vt 1.000000 0.766515
vt 0.988009 0.995323
vt 0.996005 0.766349
vt 0.788854 0.968613
vt 0.595512 0.618746
vt 0.598249 0.615945
vt 0.785130 0.968459
vt 0.779310 0.775781
vt 0.771459 0.764403
vt 0.872574 0.764399
vt 0.875222 0.760893
vt 0.778491 0.630061
vt 0.840371 0.971183
vt 0.782845 0.974685
vt 0.839128 0.964531
vt 0.787135 0.974618
vt 0.782845 0.873575
vt 0.864724 0.775777
vt 0.884254 0.764398
vt 0.892104 0.775777
vt 0.053110 0.748304
vt 0.840559 0.967199
vt 0.786492 0.964798
vt 0.992004 0.995489
vt 0.785359 0.967403
vt 0.779309 0.984109
s 0
usemtl MAT_Refri_1
f 53/1/1 44/2/1 45/3/1
f 48/4/2 51/5/2 50/6/2
f 23/7/2 12/8/2 13/9/2
f 33/10/3 29/11/3 30/12/3
f 34/13/4 41/14/4 42/15/4
f 22/16/4 9/17/4 10/18/4
f 5/19/5 10/20/5 9/21/5
f 22/22/6 21/23/6 11/24/6
f 14/25/4 17/26/4 18/27/4
f 54/28/7 35/29/7 43/30/7
f 13/31/1 10/32/1 23/33/1
f 24/34/8 1/35/8 2/36/8
f 52/37/9 27/38/9 25/39/9
f 16/40/2 19/41/2 20/42/2
f 48/4/7 45/3/10 47/43/7
f 20/42/1 15/44/1 16/40/1
f 33/45/2 32/46/2 31/47/2
f 20/42/6 18/27/6 17/26/6
f 5/48/2 4/49/2 1/35/2
f 15/50/6 12/51/6 16/52/6
f 42/15/11 43/30/11 35/29/11
f 26/53/4 27/38/4 56/54/4
f 30/12/12 34/55/12 33/10/12
f 38/56/9 34/55/9 36/57/9
f 46/58/13 42/15/13 41/14/13
f 8/59/8 11/60/8 12/61/8
f 52/37/14 51/5/14 37/62/14
f 7/63/4 2/36/4 3/64/4
f 49/65/15 37/62/15 51/5/15
f 7/66/5 8/67/5 23/68/5
f 21/69/8 18/27/8 19/41/8
f 3/64/1 6/70/1 7/63/1
f 4/49/5 2/36/5 1/35/5
f 50/6/6 25/39/6 26/53/6
f 50/6/16 53/1/17 45/3/18
f 30/12/8 52/37/8 37/62/8
f 42/15/19 33/45/19 34/13/19
f 53/1/13 56/54/13 55/71/13
f 53/1/1 55/71/1 54/28/1
f 53/1/1 54/28/1 43/30/1
f 46/58/1 47/43/1 45/3/1
f 53/1/1 43/30/1 44/2/1
f 44/2/1 46/58/1 45/3/1
f 48/4/2 49/65/2 51/5/2
f 23/7/2 8/72/2 12/8/2
f 33/10/3 31/73/3 29/11/3
f 34/13/4 40/74/4 41/14/4
f 22/16/4 11/75/4 9/17/4
f 5/19/5 24/76/5 10/20/5
f 22/22/6 13/77/6 14/78/6
f 21/23/6 16/52/6 11/24/6
f 22/22/6 14/78/6 21/23/6
f 14/25/4 15/44/4 17/26/4
f 54/28/7 32/46/7 35/29/7
f 13/31/1 22/79/1 10/32/1
f 24/34/8 5/48/8 1/35/8
f 52/37/20 28/80/20 27/38/20
f 16/40/2 21/69/2 19/41/2
f 48/4/7 50/6/21 45/3/22
f 20/42/1 17/26/1 15/44/1
f 33/45/2 35/29/2 32/46/2
f 20/42/6 19/41/6 18/27/6
f 5/48/2 6/70/2 4/49/2
f 15/50/6 14/78/6 13/77/6
f 12/51/6 11/24/6 16/52/6
f 15/50/6 13/77/6 12/51/6
f 42/15/11 44/2/11 43/30/11
f 26/53/4 25/39/4 27/38/4
f 30/12/12 36/57/12 34/55/12
f 38/56/9 40/81/9 34/55/9
f 46/58/13 44/2/13 42/15/13
f 8/59/8 9/82/8 11/60/8
f 52/37/14 25/39/14 51/5/14
f 7/63/4 24/34/4 2/36/4
f 49/65/3 39/83/3 37/62/3
f 6/84/5 5/19/5 9/21/5
f 23/68/5 10/20/5 24/76/5
f 7/66/5 6/84/5 9/21/5
f 23/68/5 24/76/5 7/66/5
f 7/66/5 9/21/5 8/67/5
f 21/69/8 14/25/8 18/27/8
f 3/64/1 4/49/1 6/70/1
f 4/49/5 3/64/5 2/36/5
f 50/6/6 51/5/6 25/39/6
f 50/6/23 26/53/17 53/1/17
f 30/12/8 29/11/8 28/80/8
f 37/62/8 39/83/8 38/56/8
f 37/62/8 38/56/8 36/57/8
f 30/12/8 28/80/8 52/37/8
f 37/62/8 36/57/8 30/12/8
f 42/15/19 35/29/19 33/45/19
f 53/1/13 26/53/13 56/54/13
