# Blender 5.1.1
# www.blender.org
mtllib REF_Mueble_Cafetera1.mtl
o REF_Mueble_Cafetera1
v -3.081208 0.722079 -4.428049
v -2.109607 0.722079 -4.428049
v -2.109607 0.722079 -3.734032
v -3.081208 0.722079 -3.734032
v -2.109607 0.722079 -3.734032
v -2.109607 1.522086 -3.734032
v -3.081208 1.522086 -3.734032
v -3.081208 0.722079 -3.734032
v -2.109607 0.722079 -4.428049
v -2.109607 1.522085 -4.428049
v -2.109607 1.522086 -3.734032
v -2.109607 0.722079 -3.734032
v -3.081208 0.722079 -4.428049
v -3.081208 1.522085 -4.428049
v -2.109607 1.522085 -4.428049
v -2.109607 0.722079 -4.428049
v -3.081208 0.722079 -3.734032
v -3.081208 1.522086 -3.734032
v -3.081208 1.522085 -4.428049
v -3.081208 0.722079 -4.428049
v -2.109607 1.522086 -3.734032
v -2.109607 1.522085 -4.428049
v -3.081208 1.522085 -4.428049
v -3.081208 1.522086 -3.734032
v -3.129988 1.522086 -3.633875
v -3.129988 1.573654 -3.633875
v -3.129988 1.573653 -4.230000
v -3.129988 1.522086 -4.230000
v -3.129988 1.522086 -4.230000
v -3.129988 1.573653 -4.230000
v -2.060827 1.573653 -4.230000
v -2.060827 1.522086 -4.230000
v -2.060827 1.522086 -4.230000
v -2.060827 1.573653 -4.230000
v -2.060827 1.573654 -3.633875
v -2.060827 1.522086 -3.633875
v -2.060827 1.522086 -3.633875
v -2.060827 1.573654 -3.633875
v -3.129988 1.573654 -3.633875
v -3.129988 1.522086 -3.633875
v -2.060827 1.573653 -4.230000
v -3.129988 1.573653 -4.230000
v -3.129988 1.573654 -3.633875
v -2.060827 1.573654 -3.633875
v -2.060827 1.522086 -3.633875
v -3.129988 1.522086 -3.633875
v -3.129988 1.522086 -4.230000
v -2.060827 1.522086 -4.230000
vn -0.0000 -0.0000 1.0000
vn -1.0000 -0.0000 -0.0000
vn -0.0000 -0.0000 -1.0000
vn -0.0000 -1.0000 -0.0000
vn -0.0000 1.0000 -0.0000
vn 1.0000 -0.0000 -0.0000
vt 0.595455 0.000000
vt 0.625000 0.250000
vt 0.625000 0.000000
vt 0.625000 0.750000
vt 0.595455 0.500000
vt 0.625000 0.500000
vt 0.595455 0.750000
vt 0.625000 1.000000
vt 0.595455 0.250000
vt 0.375000 0.000000
vt 0.125000 0.250000
vt 0.375000 0.500000
vt 0.375000 0.250000
vt 0.875000 0.500000
vt 0.875000 0.250000
vt 0.375000 0.750000
vt 0.595455 1.000000
vt 0.125000 0.500000
vt 0.375000 1.000000
s 0
usemtl wood.001
f 6/9/3 8/10/3 7/1/3
f 4/11/4 2/12/4 3/13/4
f 12/13/6 10/5/6 11/9/6
f 14/7/1 16/12/1 15/5/1
f 20/16/2 18/17/2 19/7/2
f 24/17/5 22/5/5 23/7/5
f 6/9/3 5/13/3 8/10/3
f 4/11/4 1/18/4 2/12/4
f 12/13/6 9/12/6 10/5/6
f 14/7/1 13/16/1 16/12/1
f 20/16/2 17/19/2 18/17/2
f 24/17/5 21/9/5 22/5/5
usemtl table_leg.001
f 40/1/1 38/2/1 39/3/1
f 30/4/1 32/5/1 31/6/1
f 28/7/2 26/8/2 27/4/2
f 44/2/5 42/14/5 43/15/5
f 36/9/6 34/6/6 35/2/6
f 48/5/4 46/17/4 47/7/4
f 40/1/1 37/9/1 38/2/1
f 30/4/1 29/7/1 32/5/1
f 28/7/2 25/17/2 26/8/2
f 44/2/5 41/6/5 42/14/5
f 36/9/6 33/5/6 34/6/6
f 48/5/4 45/9/4 46/17/4
