# Blender 5.1.1
# www.blender.org
mtllib REF_Paletas_1.mtl
o REF_Paletas_1
v 0.556988 1.126691 -3.888378
v 0.235962 1.532332 -3.899223
v 0.235962 1.329996 -3.886366
v 0.235962 1.126691 -3.888378
v 0.556988 1.329996 -3.886366
v 0.556988 1.532332 -3.899223
vn -0.0000 0.0268 0.9996
vn -0.0000 0.0634 0.9980
vn -0.0000 -0.0099 1.0000
vt 1.096427 0.361750
vt -0.029504 1.095555
vt -0.029504 0.361750
vt 1.096427 -0.372055
vt -0.029504 -0.372055
vt 1.096427 1.095555
s 1
usemtl Material.011
f 5/1/1 2/2/2 3/3/1
f 1/4/3 3/3/1 4/5/3
f 5/1/1 6/6/2 2/2/2
f 1/4/3 5/1/1 3/3/1
