# Blender 5.1.1
# www.blender.org
mtllib REF_Lampara_2.mtl
o REF_Lampara_2
v 3.012776 3.710529 -2.346192
v 3.002182 3.731318 1.422732
v 3.012776 3.710528 1.422729
v 3.002182 3.731319 -2.346189
v 2.985683 3.747817 1.422732
v 2.985683 3.747818 -2.346189
v 2.964894 3.758410 1.422732
v 2.964894 3.758411 -2.346189
v 2.941847 3.762060 1.422732
v 2.941847 3.762061 -2.346189
v 2.918802 3.758410 1.422732
v 2.918802 3.758411 -2.346189
v 2.898012 3.747817 1.422732
v 2.898012 3.747818 -2.346189
v 2.881513 3.731318 1.422732
v 2.881513 3.731319 -2.346189
v 2.870919 3.710528 1.422732
v 2.870919 3.710529 -2.346189
v 2.867271 3.687482 1.422729
v 2.867271 3.687484 -2.346192
v 2.870919 3.664437 1.422732
v 2.870919 3.664438 -2.346189
v 2.881513 3.643647 1.422732
v 2.881513 3.643648 -2.346189
v 2.898012 3.627148 1.422732
v 2.898012 3.627149 -2.346189
v 2.918802 3.616555 1.422732
v 2.918802 3.616556 -2.346189
v 2.941847 3.612905 1.422732
v 2.941847 3.612906 -2.346189
v 2.964894 3.616555 1.422732
v 2.964894 3.616556 -2.346189
v 2.985683 3.627148 1.422732
v 2.985683 3.627149 -2.346189
v 3.002182 3.643647 1.422732
v 3.002182 3.643648 -2.346189
v 3.012774 3.664437 1.422732
v 3.012774 3.664438 -2.346189
v 3.016426 3.687482 1.422729
v 3.016426 3.687484 -2.346192
vn -0.9511 -0.3090 -0.0000
vn -1.0000 -0.0000 -0.0000
vn 0.3090 -0.9511 -0.0000
vn -0.0000 -1.0000 -0.0000
vn -0.5878 0.8090 -0.0000
vn -0.3090 0.9511 -0.0000
vn -0.0000 -0.0000 1.0000
vn 0.9511 -0.3090 -0.0000
vn 0.8090 -0.5878 -0.0000
vn -0.8090 0.5878 -0.0000
vn -0.9511 0.3090 -0.0000
vn -0.3090 -0.9511 -0.0000
vn -0.5878 -0.8090 -0.0000
vn -0.8090 -0.5878 -0.0000
vn 0.3090 0.9511 -0.0000
vn 0.5878 0.8090 -0.0000
vn 1.0000 -0.0001 -0.0000
vn 0.9510 -0.3090 -0.0000
vn 0.8090 0.5878 -0.0000
vn -0.0000 1.0000 -0.0000
vn 0.5878 -0.8090 -0.0000
vn 0.9511 0.3090 -0.0000
vn -0.0000 -0.0000 -1.0000
vn 0.9510 0.3090 -0.0000
vn 0.0003 0.0002 1.0000
vn -0.0003 0.0002 1.0000
vn 0.0004 -0.0000 1.0000
vn 0.0003 -0.0002 1.0000
vn 0.0001 0.0001 1.0000
vn 0.0002 -0.0000 1.0000
vn 0.0001 -0.0001 1.0000
vn -0.0003 0.0002 -1.0000
vn -0.0004 -0.0001 -1.0000
vn 0.0003 -0.0002 -1.0000
vn -0.0003 -0.0002 -1.0000
vn -0.0001 0.0001 -1.0000
vn -0.0002 -0.0000 -1.0000
vn -0.0001 -0.0001 -1.0000
vt 0.100599 0.999546
vt 0.000694 0.000569
vt 0.000694 0.999546
vt 0.600127 0.999546
vt 0.500221 0.000569
vt 0.500221 0.999546
vt 0.700033 0.999546
vt 0.600127 0.000569
vt 0.600127 0.999546
vt 0.901591 0.791666
vt 0.346916 0.028221
vt 0.004108 0.500056
vt 0.899843 0.999546
vt 0.799937 0.000569
vt 0.799937 0.999546
vt 0.799938 0.999546
vt 0.899843 0.000569
vt 0.799938 0.000569
vt 0.400316 0.000569
vt 0.400316 0.999546
vt 0.300411 0.999546
vt 0.200505 0.000569
vt 0.200505 0.999546
vt 0.700033 0.000569
vt 0.400317 0.999546
vt 0.300411 0.000569
vt 0.300411 0.999546
vt 0.999748 0.000569
vt 0.899842 0.000569
vt 0.200505 0.000569
vt 0.200505 0.999546
vt 0.300411 0.000569
vt 0.100600 0.000569
vt 0.899843 0.999546
vt 0.999749 0.000569
vt 0.500222 0.000569
vt 0.500222 0.999546
vt 0.700032 0.999546
vt 0.600127 0.000569
vt 0.400317 0.000569
vt 0.100600 0.999546
vt 0.000694 0.000569
vt 0.000694 0.999546
vt 0.098857 0.208446
vt 0.653532 0.971891
vt 0.996340 0.500056
vt 0.700032 0.000569
vt 0.100600 0.000569
vt 0.028390 0.653364
vt 0.098858 0.791666
vt 0.208614 0.901422
vt 0.346916 0.971891
vt 0.500224 0.996172
vt 0.653533 0.971891
vt 0.791834 0.901422
vt 0.972059 0.653364
vt 0.996341 0.500056
vt 0.972060 0.346748
vt 0.901591 0.208446
vt 0.791835 0.098689
vt 0.653533 0.028221
vt 0.500224 0.003939
vt 0.208614 0.098689
vt 0.098858 0.208446
vt 0.028390 0.346748
vt 0.999748 0.999546
vt 0.999749 0.999546
vt 0.972059 0.346748
vt 0.901591 0.208446
vt 0.791834 0.098689
vt 0.653533 0.028221
vt 0.500224 0.003939
vt 0.346915 0.028221
vt 0.208614 0.098689
vt 0.028389 0.346748
vt 0.004108 0.500056
vt 0.028389 0.653364
vt 0.098857 0.791665
vt 0.208614 0.901422
vt 0.346915 0.971890
vt 0.500223 0.996172
vt 0.791834 0.901422
vt 0.901590 0.791666
vt 0.972059 0.653365
s 1
usemtl Emisive
f 22/1/1 19/2/2 20/3/2
f 32/4/3 29/5/4 30/6/4
f 14/7/5 11/8/6 12/9/6
s 0
f 35/10/7 11/11/7 19/12/7
s 1
f 38/13/8 35/14/9 36/15/9
f 16/16/10 17/17/11 15/18/10
f 30/6/4 27/19/12 28/20/12
f 26/21/13 23/22/14 24/23/14
f 16/16/10 13/24/5 14/7/5
f 8/25/15 5/26/16 6/27/16
f 38/13/8 39/28/17 37/29/18
f 6/27/16 2/30/19 4/31/19
f 28/20/12 25/32/13 26/21/13
f 24/23/14 21/33/1 22/1/1
f 18/34/11 19/35/2 17/17/11
f 12/9/6 9/36/20 10/37/20
f 34/38/21 31/39/3 32/4/3
f 10/37/20 7/40/15 8/25/15
f 1/41/22 39/42/17 40/43/17
s 0
f 4/44/23 28/45/23 20/46/23
s 1
f 36/15/9 33/47/21 34/38/21
f 4/31/19 3/48/24 1/41/22
f 22/1/1 21/33/1 19/2/2
f 32/4/3 31/39/3 29/5/4
f 14/7/5 13/24/5 11/8/6
s 0
f 19/12/25 21/49/25 23/50/25
f 23/50/7 25/51/7 27/52/7
f 27/52/7 29/53/7 31/54/7
f 31/54/7 33/55/7 35/10/7
f 35/10/26 37/56/26 39/57/26
f 39/57/27 3/58/27 2/59/27
f 2/59/7 5/60/7 7/61/7
f 7/61/7 9/62/7 11/11/7
f 11/11/7 13/63/7 15/64/7
f 15/64/28 17/65/28 19/12/28
f 19/12/29 23/50/29 27/52/29
f 27/52/7 31/54/7 35/10/7
f 35/10/30 39/57/30 2/59/30
f 2/59/7 7/61/7 11/11/7
f 11/11/31 15/64/31 19/12/31
f 19/12/7 27/52/7 35/10/7
f 35/10/7 2/59/7 11/11/7
s 1
f 38/13/8 37/29/18 35/14/9
f 16/16/10 18/34/11 17/17/11
f 30/6/4 29/5/4 27/19/12
f 26/21/13 25/32/13 23/22/14
f 16/16/10 15/18/10 13/24/5
f 8/25/15 7/40/15 5/26/16
f 38/13/8 40/66/17 39/28/17
f 6/27/16 5/26/16 2/30/19
f 28/20/12 27/19/12 25/32/13
f 24/23/14 23/22/14 21/33/1
f 18/34/11 20/67/2 19/35/2
f 12/9/6 11/8/6 9/36/20
f 34/38/21 33/47/21 31/39/3
f 10/37/20 9/36/20 7/40/15
f 1/41/22 3/48/24 39/42/17
s 0
f 20/46/32 18/68/32 16/69/32
f 16/69/23 14/70/23 12/71/23
f 12/71/23 10/72/23 8/73/23
f 8/73/23 6/74/23 4/44/23
f 4/44/33 1/75/33 40/76/33
f 40/76/34 38/77/34 36/78/34
f 36/78/23 34/79/23 32/80/23
f 32/80/23 30/81/23 28/45/23
f 28/45/23 26/82/23 24/83/23
f 24/83/35 22/84/35 20/46/35
f 20/46/36 16/69/36 12/71/36
f 12/71/23 8/73/23 4/44/23
f 4/44/37 40/76/37 36/78/37
f 36/78/23 32/80/23 28/45/23
f 28/45/38 24/83/38 20/46/38
f 20/46/23 12/71/23 4/44/23
f 4/44/23 36/78/23 28/45/23
s 1
f 36/15/9 35/14/9 33/47/21
f 4/31/19 2/30/19 3/48/24
