# Blender 5.1.1
# www.blender.org
mtllib REF_Lampara_1.mtl
o REF_Lampara_1
v -0.667988 3.710529 -2.346192
v -0.678582 3.731318 1.422732
v -0.667988 3.710528 1.422729
v -0.678582 3.731319 -2.346189
v -0.695081 3.747817 1.422732
v -0.695081 3.747818 -2.346189
v -0.715871 3.758410 1.422732
v -0.715871 3.758411 -2.346189
v -0.738917 3.762060 1.422732
v -0.738917 3.762061 -2.346189
v -0.761963 3.758410 1.422732
v -0.761963 3.758411 -2.346189
v -0.782752 3.747817 1.422732
v -0.782752 3.747818 -2.346189
v -0.799250 3.731318 1.422732
v -0.799250 3.731319 -2.346189
v -0.809844 3.710528 1.422732
v -0.809844 3.710529 -2.346189
v -0.813495 3.687482 1.422729
v -0.813495 3.687484 -2.346192
v -0.809844 3.664437 1.422732
v -0.809844 3.664438 -2.346189
v -0.799250 3.643647 1.422732
v -0.799250 3.643648 -2.346189
v -0.782752 3.627148 1.422732
v -0.782752 3.627149 -2.346189
v -0.761963 3.616555 1.422732
v -0.761963 3.616556 -2.346189
v -0.738917 3.612905 1.422732
v -0.738917 3.612906 -2.346189
v -0.715871 3.616555 1.422732
v -0.715871 3.616556 -2.346189
v -0.695081 3.627148 1.422732
v -0.695081 3.627149 -2.346189
v -0.678582 3.643647 1.422732
v -0.678582 3.643648 -2.346189
v -0.667991 3.664437 1.422732
v -0.667991 3.664438 -2.346189
v -0.664339 3.687482 1.422729
v -0.664339 3.687484 -2.346192
vn 0.8090 -0.5878 -0.0000
vn 0.5878 -0.8090 -0.0000
vn 0.8090 0.5878 -0.0000
vn 0.9511 0.3090 -0.0000
vn -0.5878 0.8090 -0.0000
vn -0.3090 0.9511 -0.0000
vn -0.5878 -0.8090 -0.0000
vn -0.8090 -0.5878 -0.0000
vn 0.3090 -0.9511 -0.0000
vn -0.0000 -1.0000 -0.0000
vn -0.0000 1.0000 -0.0000
vn 0.3090 0.9511 -0.0000
vn 0.9511 -0.3090 -0.0000
vn 1.0000 -0.0001 -0.0000
vn 0.5878 0.8090 -0.0000
vn -0.9511 0.3090 -0.0000
vn -0.8090 0.5878 -0.0000
vn -0.9510 -0.3090 -0.0000
vn -0.9511 -0.3090 -0.0000
vn -1.0000 -0.0000 -0.0000
vn -0.9510 0.3090 -0.0000
vn -0.3090 -0.9511 -0.0000
vn -0.0000 -0.0000 1.0000
vn -0.0000 -0.0000 -1.0000
vn 0.0003 -0.0002 1.0000
vn 0.0003 0.0002 1.0000
vn -0.0003 0.0002 1.0000
vn 0.0004 0.0001 1.0000
vn -0.0002 -0.0000 1.0000
vn -0.0001 0.0001 1.0000
vn -0.0001 -0.0001 1.0000
vn -0.0004 -0.0001 -1.0000
vn 0.0003 -0.0002 -1.0000
vn -0.0003 -0.0002 -1.0000
vn -0.0003 0.0002 -1.0000
vn -0.0002 -0.0000 -1.0000
vn -0.0001 -0.0001 -1.0000
vn -0.0001 0.0001 -1.0000
vt 0.799937 0.999546
vt 0.700032 0.000569
vt 0.700032 0.999546
vt 0.200505 0.999546
vt 0.100600 0.000569
vt 0.100600 0.999546
vt 0.700033 0.999546
vt 0.600127 0.000569
vt 0.600127 0.999546
vt 0.300411 0.999546
vt 0.200505 0.000569
vt 0.200505 0.999546
vt 0.600127 0.999546
vt 0.500221 0.000569
vt 0.500221 0.999546
vt 0.500222 0.999546
vt 0.400317 0.000569
vt 0.400317 0.999546
vt 0.899843 0.999546
vt 0.799937 0.000569
vt 0.999748 0.000569
vt 0.899842 0.000569
vt 0.300411 0.000569
vt 0.300411 0.999546
vt 0.899843 0.999546
vt 0.799938 0.000569
vt 0.799938 0.999546
vt 0.200505 0.000569
vt 0.500222 0.000569
vt 0.100600 0.000569
vt 0.100599 0.999546
vt 0.999749 0.000569
vt 0.899843 0.000569
vt 0.000694 0.000569
vt 0.000694 0.999546
vt 0.400316 0.999546
vt 0.300411 0.000569
vt 0.600127 0.000569
vt 0.700033 0.000569
vt 0.098858 0.791666
vt 0.996341 0.500056
vt 0.653533 0.028221
vt 0.098857 0.791665
vt 0.996340 0.500056
vt 0.653533 0.028221
vt 0.000694 0.000569
vt 0.000694 0.999546
vt 0.400316 0.000569
vt 0.999748 0.999546
vt 0.999749 0.999546
vt 0.500224 0.003939
vt 0.346916 0.028221
vt 0.208614 0.098689
vt 0.098858 0.208446
vt 0.028390 0.346748
vt 0.004108 0.500056
vt 0.028390 0.653364
vt 0.208614 0.901422
vt 0.346916 0.971891
vt 0.500224 0.996172
vt 0.653533 0.971891
vt 0.791834 0.901422
vt 0.901591 0.791666
vt 0.972059 0.653364
vt 0.972060 0.346748
vt 0.901591 0.208446
vt 0.791835 0.098689
vt 0.500224 0.003939
vt 0.346915 0.028221
vt 0.208614 0.098689
vt 0.098857 0.208446
vt 0.028389 0.346748
vt 0.004108 0.500056
vt 0.028389 0.653364
vt 0.208614 0.901422
vt 0.346915 0.971890
vt 0.500223 0.996172
vt 0.653532 0.971891
vt 0.791834 0.901422
vt 0.901590 0.791666
vt 0.972059 0.653365
vt 0.972059 0.346748
vt 0.901591 0.208446
vt 0.791834 0.098689
s 1
usemtl Emisive
f 36/1/1 33/2/2 34/3/2
f 4/4/3 3/5/4 1/6/4
f 14/7/5 11/8/6 12/9/6
f 26/10/7 23/11/8 24/12/8
f 32/13/9 29/14/10 30/15/10
f 10/16/11 7/17/12 8/18/12
f 38/19/13 35/20/1 36/1/1
f 38/19/13 39/21/14 37/22/13
f 8/18/12 5/23/15 6/24/15
f 18/25/16 15/26/17 16/27/17
f 6/24/15 2/28/3 4/4/3
f 10/16/11 11/8/6 9/29/11
f 24/12/8 21/30/18 22/31/19
f 18/25/16 19/32/20 17/33/21
f 22/31/19 19/34/20 20/35/20
f 28/36/22 25/37/7 26/10/7
f 34/3/2 31/38/9 32/13/9
f 16/27/17 13/39/5 14/7/5
s 0
f 23/40/23 39/41/23 7/42/23
f 36/43/24 20/44/24 12/45/24
s 1
f 1/6/4 39/46/14 40/47/14
f 30/15/10 27/48/22 28/36/22
f 36/1/1 35/20/1 33/2/2
f 4/4/3 2/28/3 3/5/4
f 14/7/5 13/39/5 11/8/6
f 26/10/7 25/37/7 23/11/8
f 32/13/9 31/38/9 29/14/10
f 10/16/11 9/29/11 7/17/12
f 38/19/13 37/22/13 35/20/1
f 38/19/13 40/49/14 39/21/14
f 8/18/12 7/17/12 5/23/15
f 18/25/16 17/33/21 15/26/17
f 6/24/15 5/23/15 2/28/3
f 10/16/11 12/9/6 11/8/6
f 24/12/8 23/11/8 21/30/18
f 18/25/16 20/50/20 19/32/20
f 22/31/19 21/30/18 19/34/20
f 28/36/22 27/48/22 25/37/7
f 34/3/2 33/2/2 31/38/9
f 16/27/17 15/26/17 13/39/5
s 0
f 7/42/23 9/51/23 11/52/23
f 11/52/23 13/53/23 15/54/23
f 15/54/25 17/55/25 19/56/25
f 19/56/26 21/57/26 23/40/26
f 23/40/23 25/58/23 27/59/23
f 27/59/23 29/60/23 31/61/23
f 31/61/23 33/62/23 35/63/23
f 35/63/27 37/64/27 39/41/27
f 39/41/28 3/65/28 2/66/28
f 2/66/23 5/67/23 7/42/23
f 7/42/23 11/52/23 15/54/23
f 15/54/29 19/56/29 23/40/29
f 23/40/23 27/59/23 31/61/23
f 31/61/30 35/63/30 39/41/30
f 39/41/31 2/66/31 7/42/31
f 7/42/23 15/54/23 23/40/23
f 23/40/23 31/61/23 39/41/23
f 12/45/24 10/68/24 8/69/24
f 8/69/24 6/70/24 4/71/24
f 4/71/32 1/72/32 40/73/32
f 40/73/33 38/74/33 36/43/33
f 36/43/24 34/75/24 32/76/24
f 32/76/24 30/77/24 28/78/24
f 28/78/24 26/79/24 24/80/24
f 24/80/34 22/81/34 20/44/34
f 20/44/35 18/82/35 16/83/35
f 16/83/24 14/84/24 12/45/24
f 12/45/24 8/69/24 4/71/24
f 4/71/36 40/73/36 36/43/36
f 36/43/24 32/76/24 28/78/24
f 28/78/37 24/80/37 20/44/37
f 20/44/38 16/83/38 12/45/38
f 12/45/24 4/71/24 36/43/24
f 36/43/24 28/78/24 20/44/24
s 1
f 1/6/4 3/5/4 39/46/14
f 30/15/10 29/14/10 27/48/22
