# Blender 5.1.1
# www.blender.org
mtllib REF_Pared_Refrigeradores.mtl
o REF_Pared_Refrigeradores
v 5.807271 0.893451 -3.955842
v 5.763214 0.893451 -1.090009
v 5.807272 0.893451 -1.090009
v 5.763213 0.893451 -3.955842
v 5.763214 0.869578 -1.068190
v 5.807272 0.893451 -1.068188
v 5.763214 0.893451 -1.068188
v 5.807272 0.869578 -1.068188
v 5.807271 0.869578 -3.977665
v 5.763213 0.869578 -3.977665
v 5.763213 0.893451 -3.977665
v 5.807271 0.893451 -3.977665
v 5.763213 2.534023 -3.977665
v 5.807271 2.534023 -3.977665
v 5.807271 0.869578 -3.955842
v 5.763213 0.869578 -3.955842
v 5.807272 0.869578 -1.090009
v 5.763214 0.869578 -1.090009
v 5.807271 2.566465 -3.977665
v 5.763213 2.566465 -3.955842
v 5.807271 2.566465 -3.955842
v 5.763213 2.566465 -3.977665
v 5.763214 2.566465 -1.090009
v 5.807272 2.566465 -1.090009
v 5.763214 2.566465 -1.068190
v 5.807272 2.566465 -1.068188
v 5.763213 2.534023 -3.955844
v 5.807271 2.534023 -3.955842
v 5.807272 2.534023 -1.068188
v 5.763214 2.534023 -1.068188
v 5.763215 2.534023 -1.090009
v 5.807272 2.534023 -1.090009
v 5.776144 0.897054 -4.427715
v 5.776144 0.555985 -4.427715
v 5.776144 0.555985 -3.955493
v 5.776146 0.897054 -3.955493
v 5.776144 2.546215 -4.427715
v 5.776146 0.555985 -1.088047
v 5.776146 2.546215 -3.955493
v 5.776146 0.897054 -1.088047
v 5.776144 2.887284 -4.427715
v 5.776146 0.897054 -0.997943
v 5.776146 0.555985 -0.997943
v 5.776146 2.546215 -1.088047
v 5.776146 2.546215 -0.997943
v 5.776144 2.887284 -3.955493
v 5.776144 3.816544 -4.427715
v 5.776144 3.816544 -3.955493
v 5.776146 2.887284 -1.088047
v 5.776146 2.887284 -0.997943
v 5.776146 3.816544 -1.088047
v 5.776146 3.816544 -0.997943
v 6.561101 2.546215 -3.955493
v 6.561101 0.897054 -1.088047
v 6.561101 2.546215 -1.088047
v 6.561101 0.897054 -3.955493
v 5.763214 0.893451 -0.905875
v 5.807275 0.893451 1.959959
v 5.807272 0.893451 -0.905875
v 5.763216 0.893451 1.959959
v 5.763214 0.869578 -0.927696
v 5.807272 0.893451 -0.927696
v 5.807272 0.869578 -0.927696
v 5.763214 0.893451 -0.927696
v 5.807275 0.869578 1.981782
v 5.763216 0.893451 1.981782
v 5.763216 0.869578 1.981782
v 5.807275 0.893451 1.981782
v 5.763216 2.534023 1.981782
v 5.807275 2.534023 1.981782
v 5.807275 0.869578 1.959959
v 5.763216 0.869578 1.959959
v 5.807272 0.869578 -0.905875
v 5.763214 0.869578 -0.905875
v 5.763216 2.566465 1.959959
v 5.807275 2.566465 1.981782
v 5.807275 2.566465 1.959959
v 5.763216 2.566465 1.981782
v 5.763214 2.566465 -0.905875
v 5.807272 2.566465 -0.905875
v 5.763214 2.566465 -0.927696
v 5.807272 2.566465 -0.927696
v 5.763216 2.534023 1.959959
v 5.807275 2.534023 1.959959
v 5.807272 2.534023 -0.927696
v 5.763214 2.534023 -0.927696
v 5.763215 2.534023 -0.905875
v 5.807272 2.534023 -0.905875
v 5.776148 0.555985 1.959607
v 5.776148 0.555985 2.431829
v 5.776148 0.897054 2.431829
v 5.776149 0.897054 1.959607
v 5.776148 2.546215 2.431829
v 5.776146 0.555985 -0.907837
v 5.776149 2.546215 1.959607
v 5.776146 0.897054 -0.907839
v 5.776148 2.887284 2.431829
v 5.776146 2.546215 -0.907839
v 5.776148 2.887284 1.959607
v 5.776148 3.816544 2.431829
v 5.776148 3.816544 1.959607
v 5.776146 2.887284 -0.907837
v 5.776146 3.816544 -0.907837
v 6.561101 0.897054 -0.907839
v 6.561102 2.546215 1.959607
v 6.561101 2.546215 -0.907839
v 6.561102 0.897054 1.959607
vn -0.0000 1.0000 -0.0000
vn -0.0000 -0.0001 1.0000
vn -0.0001 -0.0000 1.0000
vn -0.0000 -0.0000 -1.0000
vn -0.0000 -1.0000 -0.0000
vn -1.0000 -0.0000 -0.0000
vn -0.0000 -0.0000 1.0000
vn -1.0000 -0.0000 -0.0001
vn -0.0001 0.0001 1.0000
vn -1.0000 -0.0000 0.0001
vt 0.262595 0.982328
vt 0.637554 0.995581
vt 0.637690 0.989034
vt 0.262459 0.988875
vt 0.680678 0.297293
vt 0.686988 0.294132
vt 0.680873 0.293791
vt 0.686792 0.297634
vt 0.265997 1.000000
vt 0.266134 0.993452
vt 0.262383 0.993374
vt 0.262247 0.999922
vt 0.004648 0.988009
vt 0.004511 0.994557
vt 0.004589 0.294563
vt 0.004511 0.301954
vt 0.008450 0.301995
vt 0.008528 0.294604
vt 0.431898 0.305195
vt 0.431975 0.297804
vt 0.435837 0.305236
vt 0.435914 0.297845
vt 0.010129 0.318775
vt 0.016327 0.324945
vt 0.014425 0.317546
vt 0.012776 0.325023
vt 0.434702 0.327115
vt 0.436522 0.319360
vt 0.438559 0.327074
vt 0.441072 0.320425
vt 0.466122 0.057042
vt 0.458953 0.056939
vt 0.458857 0.063610
vt 0.466026 0.063713
vt 0.462922 0.474512
vt 0.455753 0.474409
vt 0.455657 0.481080
vt 0.462826 0.481183
vt 0.004724 0.983510
vt 0.004860 0.976962
vt 0.010292 0.972489
vt 0.033817 0.732838
vt 0.027717 0.732396
vt 0.016391 0.972931
vt 0.000000 0.971758
vt 0.023525 0.732108
vt 0.017426 0.731665
vt 0.006100 0.972201
vt 0.004511 0.322375
vt 0.009136 0.329593
vt 0.014481 0.332198
vt 0.436041 0.333969
vt 0.440959 0.332655
vt 0.447977 0.325023
vt 0.436022 0.341328
vt 0.014462 0.339556
vt 0.469353 0.442935
vt 0.469191 0.493043
vt 0.539814 0.493271
vt 0.539976 0.443160
vt 0.470124 0.200656
vt 0.968689 0.494669
vt 0.540746 0.200880
vt 0.968852 0.444557
vt 0.470282 0.150549
vt 0.982329 0.444599
vt 0.982166 0.494713
vt 0.969591 0.202239
vt 0.983067 0.202281
vt 0.540905 0.150773
vt 0.470714 0.014027
vt 0.541338 0.014250
vt 0.969749 0.152131
vt 0.983225 0.152173
vt 0.970181 0.015608
vt 0.983657 0.015651
vt 0.381271 0.904631
vt 0.248253 0.430364
vt 0.077323 0.602089
vt 0.552202 0.732907
vt 0.629167 0.655584
vt 0.325218 0.353041
vt 0.170930 0.353399
vt 0.000000 0.525124
vt 0.000358 0.679412
vt 0.304306 0.981954
vt 0.458594 0.981596
vt 0.629524 0.809872
s 0
usemtl MAT_Refri
f 1/1/1 2/2/1 3/3/1
f 1/1/1 4/4/1 2/2/1
f 5/5/2 6/6/2 7/7/2
f 5/5/3 8/8/3 6/6/3
f 9/9/4 10/10/4 11/11/4
f 9/9/4 11/11/4 12/12/4
f 12/12/4 11/11/4 13/13/4
f 12/12/4 13/13/4 14/14/4
f 10/15/5 9/16/5 15/17/5
f 10/15/5 15/17/5 16/18/5
f 16/18/5 15/17/5 17/19/5
f 16/18/5 17/19/5 18/20/5
f 8/21/5 18/20/5 17/19/5
f 8/21/5 5/22/5 18/20/5
f 19/23/1 20/24/1 21/25/1
f 19/23/1 22/26/1 20/24/1
f 21/25/1 20/24/1 23/27/1
f 21/25/1 23/27/1 24/28/1
f 25/29/1 24/28/1 23/27/1
f 25/29/1 26/30/1 24/28/1
f 5/31/6 7/32/6 2/33/6
f 5/31/6 2/33/6 18/34/6
f 16/35/6 18/34/6 2/33/6
f 16/35/6 2/33/6 4/36/6
f 11/37/6 16/35/6 4/36/6
f 11/37/6 10/38/6 16/35/6
f 11/11/6 27/39/6 13/13/6
f 11/11/6 4/4/6 27/39/6
f 4/4/3 28/40/3 27/39/3
f 4/4/7 1/1/7 28/40/7
f 7/41/7 29/42/7 30/43/7
f 7/41/7 6/44/7 29/42/7
f 3/45/4 31/46/4 32/47/4
f 3/45/4 2/48/4 31/46/4
f 2/48/8 30/43/8 31/46/8
f 2/48/6 7/41/6 30/43/6
f 14/49/4 22/26/4 19/23/4
f 14/49/4 13/50/4 22/26/4
f 13/50/6 20/24/6 22/26/6
f 13/50/6 27/51/6 20/24/6
f 20/24/6 27/51/6 31/52/6
f 20/24/6 31/52/6 23/27/6
f 31/52/6 25/29/6 23/27/6
f 31/52/8 30/53/8 25/29/8
f 30/53/9 26/30/9 25/29/9
f 30/53/7 29/54/7 26/30/7
f 27/51/5 32/55/5 31/52/5
f 27/51/5 28/56/5 32/55/5
f 33/57/6 34/58/6 35/59/6
f 33/57/6 35/59/6 36/60/6
f 37/61/6 33/57/6 36/60/6
f 38/62/6 36/60/6 35/59/6
f 37/61/6 36/60/6 39/63/6
f 38/62/6 40/64/6 36/60/6
f 41/65/6 37/61/6 39/63/6
f 38/62/6 42/66/6 40/64/6
f 38/62/6 43/67/6 42/66/6
f 44/68/6 40/64/6 42/66/6
f 44/68/6 42/66/6 45/69/6
f 41/65/6 39/63/6 46/70/6
f 46/70/6 39/63/6 44/68/6
f 47/71/6 41/65/6 46/70/6
f 47/71/6 46/70/6 48/72/6
f 49/73/6 44/68/6 45/69/6
f 46/70/6 44/68/6 49/73/6
f 48/72/6 46/70/6 49/73/6
f 49/73/6 45/69/6 50/74/6
f 48/72/6 49/73/6 51/75/6
f 51/75/6 49/73/6 50/74/6
f 51/75/6 50/74/6 52/76/6
f 53/77/6 54/78/6 55/79/6
f 53/77/6 56/80/6 54/78/6
f 36/81/1 54/78/1 56/80/1
f 36/81/1 40/82/1 54/78/1
f 40/83/4 55/79/4 54/78/4
f 40/83/4 44/84/4 55/79/4
f 44/85/5 53/77/5 55/79/5
f 44/85/5 39/86/5 53/77/5
f 39/87/7 56/80/7 53/77/7
f 39/87/7 36/88/7 56/80/7
f 57/2/1 58/1/1 59/3/1
f 57/2/1 60/4/1 58/1/1
f 61/5/4 62/6/4 63/8/4
f 61/5/4 64/7/4 62/6/4
f 65/9/7 66/11/7 67/10/7
f 65/9/7 68/12/7 66/11/7
f 68/12/7 69/13/7 66/11/7
f 68/12/7 70/14/7 69/13/7
f 71/17/5 65/16/5 67/15/5
f 71/17/5 67/15/5 72/18/5
f 73/19/5 71/17/5 72/18/5
f 73/19/5 72/18/5 74/20/5
f 74/20/5 63/21/5 73/19/5
f 74/20/5 61/22/5 63/21/5
f 75/24/1 76/23/1 77/25/1
f 75/24/1 78/26/1 76/23/1
f 77/25/1 79/27/1 75/24/1
f 77/25/1 80/28/1 79/27/1
f 80/28/1 81/29/1 79/27/1
f 80/28/1 82/30/1 81/29/1
f 57/33/6 64/32/6 61/31/6
f 57/33/6 61/31/6 74/34/6
f 72/35/6 57/33/6 74/34/6
f 72/35/6 60/36/6 57/33/6
f 72/35/6 66/37/6 60/36/6
f 72/35/6 67/38/6 66/37/6
f 66/11/6 83/39/6 60/4/6
f 66/11/6 69/13/6 83/39/6
f 60/4/4 84/40/4 58/1/4
f 60/4/4 83/39/4 84/40/4
f 64/41/4 85/42/4 62/44/4
f 64/41/4 86/43/4 85/42/4
f 59/45/7 87/46/7 57/48/7
f 59/45/7 88/47/7 87/46/7
f 57/48/6 86/43/6 64/41/6
f 57/48/10 87/46/10 86/43/10
f 70/49/7 78/26/7 69/50/7
f 70/49/7 76/23/7 78/26/7
f 69/50/6 75/24/6 83/51/6
f 69/50/6 78/26/6 75/24/6
f 75/24/6 87/52/6 83/51/6
f 75/24/6 79/27/6 87/52/6
f 87/52/6 79/27/6 81/29/6
f 87/52/10 81/29/10 86/53/10
f 86/53/4 82/30/4 85/54/4
f 86/53/4 81/29/4 82/30/4
f 83/51/5 88/55/5 84/56/5
f 83/51/5 87/52/5 88/55/5
f 89/59/6 90/58/6 91/57/6
f 89/59/6 91/57/6 92/60/6
f 92/60/6 91/57/6 93/61/6
f 92/60/6 94/62/6 89/59/6
f 92/60/6 93/61/6 95/63/6
f 92/60/6 96/64/6 94/62/6
f 95/63/6 93/61/6 97/65/6
f 42/66/6 94/62/6 96/64/6
f 42/66/6 43/67/6 94/62/6
f 42/66/6 96/64/6 98/68/6
f 42/66/6 98/68/6 45/69/6
f 95/63/6 97/65/6 99/70/6
f 98/68/6 95/63/6 99/70/6
f 99/70/6 97/65/6 100/71/6
f 99/70/6 100/71/6 101/72/6
f 45/69/6 98/68/6 102/73/6
f 98/68/6 99/70/6 102/73/6
f 102/73/6 99/70/6 101/72/6
f 45/69/6 102/73/6 50/74/6
f 102/73/6 101/72/6 103/75/6
f 50/74/6 102/73/6 103/75/6
f 50/74/6 103/75/6 52/76/6
f 104/78/6 105/77/6 106/79/6
f 104/78/6 107/80/6 105/77/6
f 92/81/1 104/78/1 96/82/1
f 92/81/1 107/80/1 104/78/1
f 96/83/7 106/79/7 98/84/7
f 96/83/7 104/78/7 106/79/7
f 98/85/5 105/77/5 95/86/5
f 98/85/5 106/79/5 105/77/5
f 95/87/4 107/80/4 92/88/4
f 95/87/4 105/77/4 107/80/4
