# Blender 5.1.1
# www.blender.org
mtllib REF_Refri_Puerta_1.mtl
o REF_Refri_Puerta_1
v 5.777108 0.918498 -4.117586
v 5.777108 2.492826 -3.472116
v 5.777108 0.918498 -3.472116
v 5.777108 2.492827 -4.117586
v 5.774648 0.918498 -4.117586
v 5.774648 2.492827 -3.472116
v 5.774648 2.492827 -4.117586
v 5.774648 0.918498 -3.472116
v 5.783530 0.832513 -4.176912
v 5.768226 0.832513 -3.412793
v 5.768226 0.832513 -4.176912
v 5.783530 0.832513 -3.412793
v 5.768226 2.578811 -3.412793
v 5.783530 2.578811 -3.412793
v 5.768226 2.578811 -4.176912
v 5.783530 2.578811 -4.176912
v 5.783530 0.918498 -4.117586
v 5.783530 2.492827 -4.117586
v 5.783530 2.492827 -3.472116
v 5.783530 0.918498 -3.472116
v 5.768226 0.918498 -4.117586
v 5.768226 0.918498 -3.472116
v 5.768226 2.492827 -3.472116
v 5.768226 2.492827 -4.117586
v 5.719816 1.448878 -3.447057
v 5.719816 1.448878 -3.438419
v 5.723834 1.452896 -3.451381
v 5.730667 1.461363 -3.451381
v 5.730667 1.819445 -3.451381
v 5.723834 1.828186 -3.451381
v 5.719816 1.832204 -3.447057
v 5.719816 1.832204 -3.438419
v 5.752020 1.819445 -3.451381
v 5.752020 1.828186 -3.451381
v 5.752020 1.832204 -3.447057
v 5.752020 1.832204 -3.438422
v 5.752024 1.828186 -3.434098
v 5.752029 1.819445 -3.434098
v 5.730679 1.819445 -3.434100
v 5.752029 1.815427 -3.438419
v 5.734693 1.815427 -3.438422
v 5.734688 1.465381 -3.447057
v 5.734693 1.465381 -3.438419
v 5.734688 1.815427 -3.447057
v 5.752024 1.815427 -3.447057
v 5.750164 1.465381 -3.447057
v 5.750164 1.465381 -3.438419
v 5.730679 1.461363 -3.434100
v 5.750161 1.461363 -3.434098
v 5.723834 1.452896 -3.434100
v 5.723834 1.828186 -3.434100
v 5.750157 1.452896 -3.434098
v 5.750157 1.448878 -3.438422
v 5.750161 1.448878 -3.447057
v 5.750164 1.452896 -3.451381
v 5.750164 1.461363 -3.451381
vn -0.0000 -1.0000 -0.0000
vn -0.0000 0.7326 -0.6806
vn -0.0000 -0.7326 -0.6807
vn 1.0000 -0.0000 -0.0005
vn 1.0000 -0.0000 -0.0000
vn -0.0000 -0.0000 -1.0000
vn 0.7327 -0.0000 0.6805
vn 0.7329 -0.0002 0.6803
vn 0.7330 -0.0000 0.6803
vn -1.0000 -0.0000 -0.0000
vn -0.0000 1.0000 -0.0000
vn 0.7323 -0.0000 -0.6810
vn -0.0000 -0.0000 1.0000
vn -0.7326 -0.0000 -0.6806
vn -0.0001 -0.7324 0.6808
vn -0.0008 -0.7329 0.6804
vn 0.0001 -0.7328 0.6804
vn -0.0000 0.7326 -0.6807
vn -0.4710 0.7937 0.3850
vn -0.0000 0.7329 0.6804
vn -0.7489 0.0048 0.6627
vn -0.0001 -0.7325 0.6807
vn -0.7839 -0.0366 0.6198
vn -0.7262 0.0059 0.6875
vn -0.0000 0.7323 0.6809
vn -0.0001 0.7322 0.6810
vn -0.0001 0.7322 0.6811
vn 0.7325 -0.0000 0.6807
vn 0.7328 -0.0000 0.6805
vn -0.0001 -0.0000 1.0000
vn -0.0001 0.0001 1.0000
vn 0.0002 0.0001 1.0000
vn -0.0002 -0.0003 1.0000
vn -0.0001 -0.0001 1.0000
vn -0.0001 -0.7324 0.6809
vn 0.0002 -0.7330 0.6802
vn -0.0001 0.7326 0.6807
vn -0.0001 -0.7326 0.6807
vn -0.0000 0.7324 0.6809
vt 0.875222 0.575039
vt 0.982279 0.569120
vt 0.986090 0.566694
vt 0.785130 0.970139
vt 0.788842 0.969975
vt 0.788840 0.969515
vt 0.786067 0.972621
vt 0.789275 0.972141
vt 0.789103 0.971297
vt 0.789605 0.973320
vt 0.836715 0.972219
vt 0.864724 0.984110
vt 0.872574 0.995489
vt 0.872574 0.764399
vt 0.778491 0.630061
vt 0.598249 0.615945
vt 0.595512 0.618746
vt 0.786489 0.973387
vt 0.780306 0.519243
vt 0.776447 0.626188
vt 0.057106 0.748469
vt 0.045115 0.977277
vt 0.049110 0.977443
vt 0.789158 0.967323
vt 0.836510 0.966332
vt 0.789366 0.966427
vt 0.779310 0.775781
vt 0.771459 0.995487
vt 0.779309 0.984109
vt 0.892104 0.775777
vt 0.884254 0.764398
vt 0.884245 0.995489
vt 0.782584 0.873570
vt 0.780819 0.974690
vt 0.782845 0.974685
vt 0.836904 0.971306
vt 0.983129 0.750187
vt 0.878184 0.577398
vt 0.879034 0.758467
vt 0.602113 0.509001
vt 0.600070 0.505129
vt 0.783043 0.516442
vt 0.785130 0.968459
vt 0.986091 0.752547
vt 0.875222 0.760893
vt 0.837149 0.969981
vt 0.837074 0.968576
vt 0.788854 0.968613
vt 0.977512 0.984110
vt 0.985369 0.764406
vt 0.977518 0.775784
vt 0.785937 0.965776
vt 0.840801 0.968368
vt 0.837154 0.969507
vt 0.840674 0.970139
vt 0.839735 0.972619
vt 0.788846 0.969064
vt 0.837085 0.969050
vt 1.000000 0.766515
vt 0.988009 0.995323
vt 0.992004 0.995489
vt 0.836343 0.973524
vt 0.839291 0.973408
vt 0.839814 0.965530
vt 0.836776 0.967270
vt 0.784870 0.873570
vt 0.783105 0.974690
vt 0.785130 0.974685
vt 0.785428 0.971170
vt 0.771459 0.764403
vt 0.864724 0.775777
vt 0.787135 0.974618
vt 0.053110 0.748304
vt 0.985362 0.995489
vt 0.892096 0.984110
vt 0.780559 0.873575
vt 0.840559 0.967199
vt 0.785359 0.967403
vt 0.840371 0.971183
vt 0.786492 0.964798
vt 0.996005 0.766349
vt 0.838640 0.974690
vt 0.839128 0.964531
vt 0.782845 0.873575
s 0
usemtl MAT_Refri_1
f 24/1/1 6/2/1 23/3/1
f 35/4/2 30/5/2 31/6/2
f 33/7/3 44/8/3 29/9/3
f 41/10/4 42/11/4 44/8/4
f 17/12/5 9/13/5 16/14/5
f 20/15/6 2/16/6 19/17/6
f 45/18/1 41/10/1 44/8/1
f 1/19/5 2/16/5 3/20/5
f 9/21/6 15/22/6 16/23/6
f 39/24/7 43/25/8 41/26/9
f 19/27/5 12/28/5 20/29/5
f 24/30/10 15/31/10 11/32/10
f 16/33/11 13/34/11 14/35/11
f 28/36/12 44/8/12 42/11/12
f 8/37/10 7/38/10 5/39/10
f 19/17/1 4/40/1 18/41/1
f 18/41/13 1/19/13 17/42/13
f 31/6/11 36/43/11 35/4/11
f 22/44/11 5/39/11 21/45/11
f 27/46/14 31/6/14 30/5/14
f 50/47/13 39/24/13 51/48/13
f 22/49/10 13/50/10 23/51/10
f 17/42/11 3/20/11 20/15/11
f 27/46/6 30/5/6 28/36/6
f 41/26/15 38/52/16 39/24/17
f 53/53/1 25/54/1 54/55/1
f 42/11/18 56/56/18 28/36/18
s 1
f 51/48/19 36/43/20 32/57/21
f 53/53/22 50/47/23 26/58/24
s 0
f 14/59/13 10/60/13 12/61/13
f 43/62/11 46/63/11 42/11/11
s 1
f 32/57/21 50/47/23 51/48/19
s 0
f 21/45/13 7/38/13 24/1/13
s 1
f 49/64/25 43/25/26 48/65/27
s 0
f 23/3/6 8/37/6 22/44/6
f 12/66/1 11/67/1 9/68/1
f 27/46/3 54/55/3 25/54/3
f 26/58/10 31/6/10 25/54/10
f 24/1/1 7/38/1 6/2/1
f 35/4/18 34/69/18 30/5/18
f 33/7/3 45/18/3 44/8/3
f 41/10/4 43/62/4 42/11/4
f 14/70/5 19/27/5 18/71/5
f 17/12/5 20/29/5 12/28/5
f 16/14/5 14/70/5 18/71/5
f 17/12/5 12/28/5 9/13/5
f 16/14/5 18/71/5 17/12/5
f 20/15/6 3/20/6 2/16/6
f 45/18/1 40/72/1 41/10/1
f 1/19/5 4/40/5 2/16/5
f 9/21/6 11/73/6 15/22/6
f 39/24/28 48/65/28 43/25/29
f 19/27/5 14/70/5 12/28/5
f 24/30/10 23/51/10 13/50/10
f 11/32/10 10/74/10 22/49/10
f 11/32/10 22/49/10 21/75/10
f 24/30/10 13/50/10 15/31/10
f 11/32/10 21/75/10 24/30/10
f 16/33/11 15/76/11 13/34/11
f 28/36/12 29/9/12 44/8/12
f 8/37/10 6/2/10 7/38/10
f 19/17/1 2/16/1 4/40/1
f 18/41/13 4/40/13 1/19/13
f 31/6/11 32/57/11 36/43/11
f 22/44/11 8/37/11 5/39/11
f 27/46/14 25/54/14 31/6/14
f 50/47/30 52/77/30 49/64/30
f 50/47/31 49/64/31 48/65/32
f 38/52/30 37/78/30 51/48/30
f 50/47/13 48/65/33 39/24/13
f 39/24/34 38/52/34 51/48/34
f 22/49/10 10/74/10 13/50/10
f 17/42/11 1/19/11 3/20/11
f 56/56/6 55/79/6 27/46/6
f 30/5/6 34/69/6 33/7/6
f 30/5/6 33/7/6 29/9/6
f 28/36/6 56/56/6 27/46/6
f 30/5/6 29/9/6 28/36/6
f 41/26/35 40/80/35 38/52/36
f 53/53/1 26/58/1 25/54/1
f 42/11/18 46/63/18 56/56/18
s 1
f 51/48/19 37/78/37 36/43/20
f 53/53/22 52/77/38 50/47/23
s 0
f 14/59/13 13/81/13 10/60/13
f 43/62/11 47/82/11 46/63/11
s 1
f 32/57/21 26/58/24 50/47/23
s 0
f 21/45/13 5/39/13 7/38/13
s 1
f 49/64/25 47/83/39 43/25/26
s 0
f 23/3/6 6/2/6 8/37/6
f 12/66/1 10/84/1 11/67/1
f 27/46/3 55/79/3 54/55/3
f 26/58/10 32/57/10 31/6/10
