# Blender 5.1.1
# www.blender.org
mtllib REF_Taza_Cafe.mtl
o REF_Taza_Cafe
v -1.527862 1.688856 -3.909815
v -1.542797 1.688856 -3.903628
v -1.548983 1.688856 -3.888693
v -1.542797 1.688856 -3.873758
v -1.527862 1.688856 -3.867572
v -1.512927 1.688856 -3.873758
v -1.506741 1.688856 -3.888693
v -1.512927 1.688856 -3.903628
vn -0.0000 1.0000 -0.0000
vt 0.000000 0.000000
s 0
usemtl Material.005
f 5/1/1 7/1/1 1/1/1
f 1/1/1 2/1/1 3/1/1
f 3/1/1 4/1/1 5/1/1
f 5/1/1 6/1/1 7/1/1
f 7/1/1 8/1/1 1/1/1
f 1/1/1 3/1/1 5/1/1
