# Blender 5.1.1
# www.blender.org
mtllib REF_Refri_Puerta_3.mtl
o REF_Refri_Puerta_3
v 5.719817 1.448878 -1.910261
v 5.719817 1.448878 -1.901623
v 5.750157 1.448878 -1.901626
v 5.750162 1.448878 -1.910261
v 5.734686 1.832204 -1.901626
v 5.719817 1.832204 -1.910261
v 5.719817 1.832204 -1.901623
v 5.734686 1.832204 -1.910261
v 5.752021 1.832204 -1.910261
v 5.752021 1.832204 -1.901626
v 5.734689 1.465380 -1.910261
v 5.734693 1.815427 -1.901626
v 5.734693 1.465380 -1.901623
v 5.734689 1.815427 -1.910261
v 5.719817 1.465380 -1.910261
v 5.719817 1.815427 -1.910261
v 5.719817 1.815427 -1.901623
v 5.750164 1.465380 -1.910261
v 5.750164 1.465380 -1.901623
v 5.750157 1.452896 -1.897302
v 5.750162 1.461363 -1.897302
v 5.730680 1.461363 -1.897302
v 5.723834 1.452896 -1.897302
v 5.723834 1.465380 -1.897302
v 5.723834 1.815427 -1.897302
v 5.730680 1.819445 -1.897302
v 5.723834 1.828186 -1.897302
v 5.752030 1.819445 -1.897302
v 5.752025 1.828186 -1.897302
v 5.750164 1.461363 -1.914585
v 5.750164 1.452896 -1.914585
v 5.730668 1.461363 -1.914588
v 5.723834 1.452896 -1.914588
v 5.723834 1.465380 -1.914585
v 5.730668 1.819445 -1.914588
v 5.723834 1.815427 -1.914585
v 5.723834 1.828186 -1.914588
v 5.752021 1.819445 -1.914585
v 5.752021 1.828186 -1.914585
v 5.752030 1.815427 -1.901623
v 5.752025 1.815427 -1.910261
v 5.777107 0.918498 -2.580789
v 5.777107 2.492826 -1.935320
v 5.777107 0.918498 -1.935320
v 5.777107 2.492827 -2.580789
v 5.774647 0.918498 -2.580789
v 5.774647 2.492827 -1.935320
v 5.774647 2.492827 -2.580789
v 5.774647 0.918498 -1.935320
v 5.783529 0.832513 -2.640112
v 5.768225 0.832513 -1.875996
v 5.768225 0.832513 -2.640112
v 5.783529 0.832513 -1.875996
v 5.768225 2.578811 -1.875996
v 5.783529 2.578811 -1.875996
v 5.768225 2.578811 -2.640112
v 5.783529 2.578811 -2.640112
v 5.783529 0.918498 -2.580789
v 5.783529 2.492827 -2.580789
v 5.783529 2.492827 -1.935320
v 5.783529 0.918498 -1.935320
v 5.768225 0.918498 -2.580789
v 5.768225 0.918498 -1.935320
v 5.768225 2.492827 -1.935320
v 5.768225 2.492827 -2.580789
v 5.719816 1.448878 -1.910261
v 5.719816 1.448878 -1.901623
v 5.734686 1.832204 -1.901626
v 5.719816 1.832204 -1.910261
v 5.719816 1.832204 -1.901623
v 5.734686 1.832204 -1.910261
v 5.752020 1.832204 -1.910261
v 5.719816 1.465381 -1.910261
v 5.719816 1.815427 -1.910261
v 5.719816 1.815427 -1.901623
v 5.723834 1.465381 -1.897302
v 5.723834 1.815427 -1.897302
v 5.723834 1.452896 -1.914588
v 5.723834 1.465381 -1.914585
v 5.723834 1.815427 -1.914585
vn -0.0000 -1.0000 -0.0000
vn -0.7323 -0.0001 -0.6810
vn -0.7326 -0.0001 -0.6806
vn -0.0000 1.0000 -0.0000
vn -1.0000 -0.0000 -0.0000
vn -0.0000 0.7324 0.6809
vn 0.7325 -0.0000 -0.6808
vn -0.0000 -0.0000 1.0000
vn -0.0000 -0.0000 -1.0000
vn 1.0000 -0.0000 -0.0000
vn 0.0002 -0.7327 -0.6806
vn -0.0003 -0.7328 -0.6805
vn -0.0001 -0.7331 -0.6801
vn -0.0009 0.0003 -1.0000
vn 0.0001 0.0003 -1.0000
vn -0.0004 -0.0003 -1.0000
vn -0.0001 -0.7324 0.6809
vn -0.0000 0.7326 -0.6807
vn -0.7324 -0.0000 0.6809
vn -0.0003 -0.7327 -0.6805
vn -0.0000 -0.7326 -0.6807
vn -0.0001 -0.7328 -0.6804
vn -0.0000 0.7328 -0.6804
vn 0.0002 0.7323 0.6810
vn -0.0000 0.7326 0.6807
vn -0.0004 -0.7325 0.6808
vn 0.0001 -0.7328 0.6804
vn -0.0001 -0.7323 0.6810
vn -0.7329 0.0001 -0.6803
vn -0.7326 -0.0000 -0.6806
vn 1.0000 -0.0000 -0.0005
vn 0.7330 -0.0000 0.6803
vn -0.7327 0.0004 -0.6805
vn -0.7325 0.0001 -0.6808
vn -0.7328 -0.0000 -0.6804
vn 0.0001 -0.7324 -0.6809
vn 0.0001 -0.7326 -0.6807
vn -0.0000 -0.7324 -0.6809
vn 0.0006 0.0001 -1.0000
vn 0.0005 -0.0003 -1.0000
vn 0.0001 -0.0000 -1.0000
vn 0.0007 -0.0000 -1.0000
vn 0.0006 -0.0000 -1.0000
vn 0.0006 -0.0001 -1.0000
vn 0.0006 0.0003 -1.0000
vn 0.0004 -0.0003 -1.0000
vn 0.0001 0.0001 -1.0000
vn 0.0006 -0.0004 -1.0000
vn 0.0004 0.0003 -1.0000
vn 0.0003 0.0001 -1.0000
vn -0.0000 0.0006 -1.0000
vn -0.0112 -0.0005 -0.9999
vn -0.0110 -0.0007 -0.9999
vn -0.0109 0.0002 -0.9999
vn -0.0007 -0.0002 -1.0000
vn -0.0002 0.0005 -1.0000
vn -0.0000 -0.0003 -1.0000
vn -0.0000 -0.7326 0.6807
vn 0.0001 0.7328 -0.6805
vn 0.0001 -0.7330 -0.6802
vn 0.0001 -0.7328 -0.6805
vn 0.0001 0.7326 -0.6807
vn 0.0005 0.7326 0.6807
vn -0.0003 0.7324 0.6809
vn 0.0003 0.7322 0.6811
vn 0.0001 0.7325 0.6808
vn -0.0000 -0.7321 0.6812
vn -0.0000 -0.7322 0.6811
vn 0.0004 -0.7325 0.6808
vn 0.7327 -0.0000 0.6805
vt 0.875222 0.575039
vt 0.982279 0.569120
vt 0.986090 0.566694
vt 0.790136 0.969806
vt 0.788842 0.969975
vt 0.789997 0.970485
vt 0.787673 0.968801
vt 0.785130 0.968459
vt 0.785130 0.970139
vt 0.835803 0.969799
vt 0.837154 0.969507
vt 0.837085 0.969050
vt 0.790173 0.968827
vt 0.788846 0.969064
vt 0.788840 0.969515
vt 0.986091 0.752547
vt 0.879034 0.758467
vt 0.875222 0.760893
vt 0.836510 0.966332
vt 0.839814 0.965530
vt 0.839128 0.964531
vt 0.789275 0.972141
vt 0.836904 0.971306
vt 0.789103 0.971297
vt 0.878184 0.577398
vt 0.784870 0.873570
vt 0.783105 0.974690
vt 0.785130 0.974685
vt 0.778491 0.630061
vt 0.598249 0.615945
vt 0.595512 0.618746
vt 0.977518 0.775784
vt 0.985362 0.995489
vt 0.985369 0.764406
vt 0.864724 0.775777
vt 0.771459 0.764403
vt 0.779310 0.775781
vt 0.837149 0.969981
vt 0.840674 0.970139
vt 0.835961 0.970507
vt 0.786489 0.973387
vt 0.789605 0.973320
vt 0.836343 0.973524
vt 0.839291 0.973408
vt 0.836715 0.972219
vt 0.782584 0.873570
vt 0.780819 0.974690
vt 0.782845 0.974685
vt 0.790040 0.968127
vt 0.789158 0.967323
vt 0.788854 0.968613
vt 0.785937 0.965776
vt 0.789366 0.966427
vt 0.786492 0.964798
vt 0.840801 0.968368
vt 1.000000 0.766515
vt 0.988009 0.995323
vt 0.992004 0.995489
vt 0.839735 0.972619
vt 0.835911 0.968111
vt 0.837074 0.968576
vt 0.786067 0.972621
vt 0.057106 0.748469
vt 0.045115 0.977277
vt 0.049110 0.977443
vt 0.983129 0.750187
vt 0.787710 0.969798
vt 0.602113 0.509001
vt 0.600070 0.505129
vt 0.780306 0.519243
vt 0.783043 0.516442
vt 0.785359 0.967403
vt 0.840559 0.967199
vt 0.776447 0.626188
vt 0.892096 0.984110
vt 0.884254 0.764398
vt 0.884245 0.995489
vt 0.779309 0.984109
vt 0.771459 0.995487
vt 0.872574 0.995489
vt 0.836776 0.967270
vt 0.782845 0.873575
vt 0.977512 0.984110
vt 0.892104 0.775777
vt 0.872574 0.764399
vt 0.840371 0.971183
vt 0.785428 0.971170
vt 0.787135 0.974618
vt 0.838640 0.974690
vt 0.780559 0.873575
vt 0.996005 0.766349
vt 0.053110 0.748304
vt 0.864724 0.984110
s 0
usemtl MAT_Refri_1
f 65/1/1 47/2/1 64/3/1
f 16/4/2 37/5/3 36/6/3
f 5/7/4 10/8/4 9/9/4
f 15/10/5 1/11/5 2/12/5
f 17/13/5 7/14/5 6/15/5
f 63/16/4 46/17/4 62/18/4
f 13/19/6 21/20/6 19/21/6
f 14/22/7 32/23/7 35/24/7
f 62/18/8 48/25/8 65/1/8
f 53/26/1 52/27/1 50/28/1
f 61/29/9 43/30/9 60/31/9
f 64/32/5 51/33/5 54/34/5
f 59/35/10 55/36/10 60/37/10
f 33/38/11 4/39/12 1/11/13
f 32/23/14 34/40/15 36/6/16
f 41/41/1 12/42/1 14/22/1
f 13/43/4 18/44/4 11/45/4
f 57/46/4 54/47/4 55/48/4
f 25/49/8 26/50/8 27/51/8
f 28/52/17 12/53/17 40/54/17
f 1/11/1 3/55/1 2/12/1
f 55/56/8 51/57/8 53/58/8
f 30/59/18 11/45/18 18/44/18
f 24/60/19 2/12/19 23/61/19
f 7/14/19 25/49/19 27/51/19
f 5/7/4 6/15/4 7/14/4
f 14/22/20 38/62/21 41/41/22
f 74/4/5 67/12/5 69/15/5
f 50/63/9 56/64/9 57/65/9
f 49/66/5 48/25/5 46/17/5
f 37/5/23 8/67/23 9/9/23
f 60/31/1 45/68/1 59/69/1
f 59/69/8 42/70/8 58/71/8
f 5/7/24 27/51/25 29/72/25
f 23/61/26 3/55/27 20/73/28
f 64/3/9 49/66/9 63/16/9
f 58/71/4 44/74/4 61/29/4
f 68/7/1 71/67/1 72/9/1
s 1
f 75/13/19 77/49/19 70/14/19
s 0
f 66/11/29 79/40/29 78/38/29
f 80/6/30 73/10/30 74/4/30
f 62/75/5 56/76/5 52/77/5
f 34/40/30 15/10/30 36/6/30
f 61/78/10 53/79/10 50/80/10
f 45/68/10 44/74/10 42/70/10
f 11/45/31 12/42/31 13/43/31
f 26/50/32 13/19/32 12/53/32
f 65/1/1 48/25/1 47/2/1
f 16/4/33 6/15/34 37/5/35
f 63/16/4 49/66/4 46/17/4
f 13/19/6 22/81/6 21/20/6
f 14/22/7 11/45/7 32/23/7
f 62/18/8 46/17/8 48/25/8
f 53/26/1 51/82/1 52/27/1
f 61/29/9 44/74/9 43/30/9
f 64/32/5 63/83/5 51/33/5
f 54/34/5 65/84/5 64/32/5
f 59/35/10 57/85/10 55/36/10
f 33/38/36 31/86/37 4/39/38
f 39/87/39 38/62/40 35/24/41
f 32/23/42 30/59/43 31/86/44
f 37/5/45 39/87/46 35/24/47
f 32/23/48 31/86/49 33/38/50
f 37/5/40 35/24/9 32/23/51
f 36/6/52 37/5/53 32/23/54
f 32/23/55 33/38/56 34/40/57
f 41/41/1 40/88/1 12/42/1
f 13/43/4 19/89/4 18/44/4
f 57/46/4 56/90/4 54/47/4
f 23/61/8 20/73/8 21/20/8
f 23/61/8 21/20/8 22/81/8
f 24/60/8 23/61/8 22/81/8
f 26/50/8 28/52/8 29/72/8
f 24/60/8 22/81/8 26/50/8
f 25/49/8 24/60/8 26/50/8
f 26/50/8 29/72/8 27/51/8
f 28/52/58 26/50/58 12/53/58
f 1/11/1 4/39/1 3/55/1
f 55/56/8 54/91/8 51/57/8
f 30/59/59 32/23/59 11/45/59
f 24/60/19 17/13/19 2/12/19
f 5/7/4 8/67/4 6/15/4
f 14/22/60 35/24/61 38/62/61
f 74/4/5 73/10/5 67/12/5
f 67/12/5 75/13/5 69/15/5
f 50/63/9 52/92/9 56/64/9
f 49/66/5 47/2/5 48/25/5
f 9/9/62 39/87/62 37/5/62
f 37/5/23 6/15/23 8/67/23
f 60/31/1 43/30/1 45/68/1
f 59/69/8 45/68/8 42/70/8
f 29/72/25 10/8/25 5/7/63
f 5/7/64 7/14/65 27/51/66
f 23/61/67 2/12/68 3/55/69
f 64/3/9 47/2/9 49/66/9
f 58/71/4 42/70/4 44/74/4
s 1
f 75/13/19 76/60/19 77/49/19
s 0
f 51/33/5 63/83/5 62/75/5
f 65/84/5 54/34/5 56/76/5
f 52/77/5 51/33/5 62/75/5
f 62/75/5 65/84/5 56/76/5
f 34/40/30 1/11/30 15/10/30
f 61/78/10 60/37/10 55/36/10
f 50/80/10 57/85/10 59/35/10
f 50/80/10 59/35/10 58/93/10
f 61/78/10 55/36/10 53/79/10
f 50/80/10 58/93/10 61/78/10
f 45/68/10 43/30/10 44/74/10
f 11/45/31 14/22/31 12/42/31
f 26/50/70 22/81/70 13/19/70
