# Blender 5.1.1
# www.blender.org
mtllib REF_Rack_Rack_Refri_8.mtl
o REF_Rack_Refri_8
v 5.811299 1.747157 2.167555
v 5.811299 1.747157 1.424937
v 5.834454 1.789983 1.424937
v 5.834456 1.789983 2.167555
v 5.867659 1.747157 2.167555
v 5.867657 1.756463 2.167555
v 5.867657 1.780678 2.167555
v 5.867659 1.747157 1.424937
v 5.867657 1.756463 1.424937
v 6.322155 1.835570 2.167555
v 6.322155 1.811356 2.167555
v 6.322155 1.811356 1.424937
v 5.867657 1.780678 1.424937
v 6.322155 1.835570 1.424937
v 5.867659 1.789983 1.424937
v 5.867659 1.789983 2.167555
v 5.809174 0.970041 1.429644
v 5.832329 1.012867 1.429644
v 5.832329 1.012867 2.172265
v 5.809174 0.970041 2.172265
v 5.865534 0.970041 1.429644
v 5.865534 0.970041 2.172265
v 5.865531 0.979347 1.429647
v 5.865531 1.003561 1.429647
v 5.865531 0.979347 2.172265
v 6.320028 1.034239 1.429647
v 6.320028 1.058454 1.429647
v 6.320028 1.058454 2.172265
v 5.865531 1.003561 2.172265
v 6.320028 1.034239 2.172265
v 5.865534 1.012867 2.172265
v 5.865534 1.012867 1.429644
v 5.809174 1.229079 1.429644
v 5.832329 1.271906 1.429644
v 5.832329 1.271906 2.172265
v 5.809174 1.229079 2.172265
v 5.865534 1.229079 1.429644
v 5.865534 1.229079 2.172265
v 5.865531 1.238385 1.429647
v 5.865531 1.262600 1.429647
v 5.865531 1.238385 2.172265
v 6.320028 1.293278 1.429647
v 6.320028 1.317493 1.429647
v 6.320028 1.317493 2.172265
v 5.865531 1.262600 2.172265
v 6.320028 1.293278 2.172265
v 5.865534 1.271906 2.172265
v 5.865534 1.271906 1.429644
v 5.811299 1.488118 2.167555
v 5.811299 1.488118 1.424937
v 5.834455 1.530944 1.424937
v 5.834457 1.530944 2.167555
v 5.867659 1.488118 2.167555
v 5.867658 1.497424 2.167555
v 5.867658 1.521639 2.167555
v 5.867659 1.488118 1.424937
v 5.867658 1.497424 1.424937
v 6.322156 1.576531 2.167555
v 6.322156 1.552317 2.167555
v 6.322156 1.552317 1.424937
v 5.867658 1.521639 1.424937
v 6.322156 1.576531 1.424937
v 5.867659 1.530944 1.424937
v 5.867659 1.530944 2.167555
v 5.811299 2.006196 2.167554
v 5.811299 2.006196 1.424937
v 5.834455 2.049022 1.424937
v 5.834457 2.049022 2.167554
v 5.867659 2.006196 2.167554
v 5.867658 2.015502 2.167554
v 5.867658 2.039716 2.167554
v 5.867659 2.006196 1.424937
v 5.867658 2.015502 1.424937
v 6.322156 2.094609 2.167554
v 6.322156 2.070394 2.167554
v 6.322156 2.070394 1.424937
v 5.867658 2.039716 1.424937
v 6.322156 2.094609 1.424937
v 5.867659 2.049022 1.424937
v 5.867659 2.049022 2.167554
v 5.811299 2.265235 2.167554
v 5.811299 2.265235 1.424937
v 5.834455 2.308061 1.424937
v 5.834457 2.308061 2.167554
v 5.867659 2.265235 2.167554
v 5.867658 2.274540 2.167554
v 5.867658 2.298755 2.167554
v 5.867659 2.265235 1.424937
v 5.867658 2.274540 1.424937
v 6.322156 2.353647 2.167554
v 6.322156 2.329433 2.167554
v 6.322156 2.329433 1.424937
v 5.867658 2.298755 1.424937
v 6.322156 2.353647 1.424937
v 5.867659 2.308061 1.424937
v 5.867659 2.308061 2.167554
vn -0.0000 -1.0000 -0.0000
vn -0.8797 0.4756 -0.0000
vn -0.0000 -0.0000 1.0000
vn 1.0000 -0.0003 -0.0000
vn -0.0000 1.0000 -0.0000
vn 0.1199 -0.9928 -0.0000
vn 1.0000 0.0003 -0.0000
vn 1.0000 0.0001 -0.0000
vn -0.1199 0.9928 -0.0000
vn -0.0000 -0.0000 -1.0000
vn 1.0000 -0.0001 -0.0000
vn 0.0001 -0.0000 -1.0000
vn -0.0000 0.0003 -1.0000
vn -0.8796 0.4757 -0.0000
vn 0.0002 -0.0003 -1.0000
vn -0.0003 0.0002 -1.0000
vn 0.0003 0.0001 -1.0000
vn -0.0000 -0.0003 -1.0000
vn -0.0002 0.0002 -1.0000
vt 0.736637 0.863899
vt 0.634631 0.883020
vt 0.734610 0.856312
vt 0.632880 0.876466
vt 0.637116 0.892355
vt 0.632145 0.891814
vt 0.737096 0.865646
vt 0.741150 0.862694
vt 0.732859 0.849757
vt 0.633984 0.893611
vt 0.533546 0.918573
vt 0.534005 0.920320
vt 0.632331 0.887394
vt 0.633526 0.891864
vt 0.753561 0.927281
vt 0.636658 0.890608
vt 0.532352 0.914103
vt 0.650450 0.955245
vt 0.550470 0.981954
vt 0.635405 0.890943
vt 0.740437 0.865173
vt 0.737890 0.863565
vt 0.629698 0.887678
vt 0.653582 0.953990
vt 0.630892 0.892148
vt 0.742403 0.862359
vt 0.741209 0.857889
vt 0.756902 0.926807
s 0
usemtl New_Material
f 72/1/1 65/2/1 66/3/1
f 20/3/2 18/4/2 17/2/2
f 1/2/3 6/5/3 7/6/3
f 20/3/3 25/7/3 29/8/3
f 88/1/1 81/2/1 82/3/1
f 56/1/1 49/2/1 50/3/1
f 1/2/2 3/9/2 2/3/2
f 24/10/4 31/11/4 29/12/4
f 63/11/5 52/13/5 64/14/5
f 92/15/6 86/5/6 89/7/6
f 23/5/7 22/1/7 21/16/7
f 19/17/5 32/14/5 18/13/5
f 73/7/8 69/16/8 72/1/8
f 13/12/9 10/18/9 14/19/9
f 15/11/5 4/13/5 16/14/5
f 36/3/2 34/4/2 33/2/2
f 39/20/10 33/2/10 40/10/10
f 8/1/1 1/2/1 2/3/1
f 67/17/5 80/14/5 79/11/5
f 13/21/10 9/22/10 2/3/10
f 65/2/2 67/9/2 66/3/2
f 9/7/8 5/16/8 8/1/8
f 55/10/11 63/11/11 64/14/11
f 89/7/8 85/16/8 88/1/8
f 22/1/1 17/2/1 21/16/1
f 35/17/5 48/14/5 34/13/5
f 29/12/9 27/18/9 24/10/9
f 87/10/11 95/11/11 96/14/11
f 71/10/11 79/11/11 80/14/11
f 24/10/12 23/20/13 18/23/12
f 54/5/3 55/6/3 52/23/3
f 30/15/6 23/5/6 26/24/6
f 46/15/6 39/5/6 42/24/6
f 60/15/6 54/5/6 57/7/6
f 57/7/8 53/16/8 56/1/8
f 57/22/10 50/3/10 61/21/10
f 70/5/3 71/6/3 68/23/3
f 39/5/7 38/1/7 37/16/7
f 45/12/9 43/18/9 40/10/9
f 12/15/6 6/5/6 9/7/6
f 89/22/10 82/3/10 93/21/10
f 38/1/1 33/2/1 37/16/1
f 40/10/4 47/11/4 45/12/4
f 77/12/9 74/18/9 78/19/9
f 76/15/6 70/5/6 73/7/6
f 77/21/10 73/22/10 66/3/10
f 83/17/5 96/14/5 95/11/5
f 61/12/9 58/18/9 62/19/9
f 86/5/3 87/6/3 84/23/3
f 49/2/2 51/9/2 50/3/2
f 93/12/9 90/18/9 94/19/9
f 7/10/11 15/11/11 16/14/11
f 41/7/3 45/8/3 36/3/3
f 81/2/2 83/9/2 82/3/2
f 72/1/1 69/16/1 65/2/1
f 20/3/2 19/9/2 18/4/2
f 16/25/3 4/23/3 1/2/3
f 1/2/3 5/16/3 6/5/3
f 6/5/3 11/24/3 10/18/3
f 7/6/3 16/25/3 1/2/3
f 6/5/3 10/18/3 7/6/3
f 31/26/3 19/27/3 20/3/3
f 20/3/3 22/1/3 25/7/3
f 25/7/3 30/15/3 28/28/3
f 29/8/3 31/26/3 20/3/3
f 25/7/3 28/28/3 29/8/3
f 88/1/1 85/16/1 81/2/1
f 56/1/1 53/16/1 49/2/1
f 1/2/14 4/4/14 3/9/14
f 24/10/4 32/14/4 31/11/4
f 63/11/5 51/17/5 52/13/5
f 92/15/6 91/24/6 86/5/6
f 23/5/7 25/7/7 22/1/7
f 19/17/5 31/11/5 32/14/5
f 73/7/8 70/5/8 69/16/8
f 13/12/9 7/10/9 10/18/9
f 15/11/5 3/17/5 4/13/5
f 36/3/2 35/9/2 34/4/2
f 39/20/13 37/16/13 33/2/13
f 33/2/10 34/23/10 48/25/10
f 40/10/10 43/18/10 42/24/10
f 33/2/15 48/25/15 40/10/15
f 40/10/10 42/24/10 39/20/10
f 8/1/1 5/16/1 1/2/1
f 67/17/5 68/13/5 80/14/5
f 2/3/10 3/27/10 15/26/10
f 13/21/10 14/28/10 12/15/10
f 2/3/10 15/26/10 13/21/10
f 9/22/10 8/1/10 2/3/10
f 13/21/10 12/15/10 9/22/10
f 65/2/14 68/4/14 67/9/14
f 9/7/8 6/5/8 5/16/8
f 55/10/11 61/12/11 63/11/11
f 89/7/8 86/5/8 85/16/8
f 22/1/1 20/3/1 17/2/1
f 35/17/5 47/11/5 48/14/5
f 29/12/9 28/19/9 27/18/9
f 87/10/11 93/12/11 95/11/11
f 71/10/11 77/12/11 79/11/11
f 24/10/10 27/18/10 26/24/10
f 23/20/16 21/16/13 17/2/13
f 24/10/10 26/24/10 23/20/17
f 18/23/18 32/25/18 24/10/18
f 23/20/19 17/2/12 18/23/12
f 52/23/3 49/2/3 53/16/3
f 54/5/3 59/24/3 58/18/3
f 52/23/3 53/16/3 54/5/3
f 55/6/3 64/25/3 52/23/3
f 54/5/3 58/18/3 55/6/3
f 30/15/6 25/7/6 23/5/6
f 46/15/6 41/7/6 39/5/6
f 60/15/6 59/24/6 54/5/6
f 57/7/8 54/5/8 53/16/8
f 62/28/10 60/15/10 57/22/10
f 57/22/10 56/1/10 50/3/10
f 50/3/10 51/27/10 63/26/10
f 61/21/10 62/28/10 57/22/10
f 50/3/10 63/26/10 61/21/10
f 68/23/3 65/2/3 69/16/3
f 70/5/3 75/24/3 74/18/3
f 68/23/3 69/16/3 70/5/3
f 71/6/3 80/25/3 68/23/3
f 70/5/3 74/18/3 71/6/3
f 39/5/7 41/7/7 38/1/7
f 45/12/9 44/19/9 43/18/9
f 12/15/6 11/24/6 6/5/6
f 94/28/10 92/15/10 89/22/10
f 89/22/10 88/1/10 82/3/10
f 82/3/10 83/27/10 95/26/10
f 93/21/10 94/28/10 89/22/10
f 82/3/10 95/26/10 93/21/10
f 38/1/1 36/3/1 33/2/1
f 40/10/4 48/14/4 47/11/4
f 77/12/9 71/10/9 74/18/9
f 76/15/6 75/24/6 70/5/6
f 66/3/10 67/27/10 79/26/10
f 77/21/10 78/28/10 76/15/10
f 66/3/10 79/26/10 77/21/10
f 73/22/10 72/1/10 66/3/10
f 77/21/10 76/15/10 73/22/10
f 83/17/5 84/13/5 96/14/5
f 61/12/9 55/10/9 58/18/9
f 84/23/3 81/2/3 85/16/3
f 86/5/3 91/24/3 90/18/3
f 84/23/3 85/16/3 86/5/3
f 87/6/3 96/25/3 84/23/3
f 86/5/3 90/18/3 87/6/3
f 49/2/14 52/4/14 51/9/14
f 93/12/9 87/10/9 90/18/9
f 7/10/11 13/12/11 15/11/11
f 41/7/3 46/15/3 44/28/3
f 45/8/3 47/26/3 35/27/3
f 41/7/3 44/28/3 45/8/3
f 36/3/3 38/1/3 41/7/3
f 45/8/3 35/27/3 36/3/3
f 81/2/14 84/4/14 83/9/14
