# Blender 5.1.1
# www.blender.org
mtllib REF_Rack_Rack_Refri_4.mtl
o REF_Rack_Refri_4
v 5.811296 1.747157 -1.858249
v 5.834449 1.789983 -1.858249
v 5.834449 1.789983 -1.115629
v 5.811296 1.747157 -1.115629
v 5.867653 1.747157 -1.858249
v 5.867653 1.747157 -1.115629
v 5.867653 1.756463 -1.858249
v 5.867653 1.780678 -1.858249
v 5.867653 1.756463 -1.115629
v 6.322150 1.811356 -1.858249
v 6.322150 1.835570 -1.858249
v 6.322150 1.835570 -1.115629
v 5.867653 1.780678 -1.115629
v 6.322150 1.811356 -1.115629
v 5.867653 1.789983 -1.115629
v 5.867653 1.789983 -1.858249
v 5.811296 0.970041 -1.858250
v 5.834450 1.012867 -1.858250
v 5.834450 1.012867 -1.115629
v 5.811296 0.970041 -1.115629
v 5.867653 0.970041 -1.858250
v 5.867653 0.970041 -1.115629
v 5.867653 0.979347 -1.858250
v 5.867653 1.003561 -1.858250
v 5.867653 0.979347 -1.115629
v 6.322150 1.034239 -1.858250
v 6.322150 1.058454 -1.858250
v 6.322150 1.058454 -1.115629
v 5.867653 1.003561 -1.115629
v 6.322150 1.034239 -1.115629
v 5.867653 1.012867 -1.115629
v 5.867653 1.012867 -1.858250
v 5.811296 1.229079 -1.858250
v 5.834450 1.271906 -1.858250
v 5.834450 1.271906 -1.115629
v 5.811296 1.229079 -1.115629
v 5.867653 1.229079 -1.858250
v 5.867653 1.229079 -1.115629
v 5.867653 1.238385 -1.858250
v 5.867653 1.262600 -1.858250
v 5.867653 1.238385 -1.115629
v 6.322150 1.293278 -1.858250
v 6.322150 1.317493 -1.858250
v 6.322150 1.317493 -1.115629
v 5.867653 1.262600 -1.115629
v 6.322150 1.293278 -1.115629
v 5.867653 1.271906 -1.115629
v 5.867653 1.271906 -1.858250
v 5.811296 1.229079 -1.858250
v 5.834450 1.271906 -1.858250
v 5.834450 1.271906 -1.115629
v 5.811296 1.229079 -1.115629
v 5.867653 1.229079 -1.858250
v 5.867653 1.229079 -1.115629
v 5.867653 1.238385 -1.858250
v 5.867653 1.262600 -1.858250
v 5.867653 1.238385 -1.115629
v 6.322150 1.293278 -1.858250
v 6.322150 1.317493 -1.858250
v 6.322150 1.317493 -1.115629
v 5.867653 1.262600 -1.115629
v 6.322150 1.293278 -1.115629
v 5.867653 1.271906 -1.115629
v 5.867653 1.271906 -1.858250
v 5.811295 2.265234 -1.858249
v 5.834449 2.308060 -1.858249
v 5.834449 2.308060 -1.115629
v 5.811295 2.265234 -1.115629
v 5.867652 2.265234 -1.858249
v 5.867652 2.265234 -1.115629
v 5.867652 2.274540 -1.858249
v 5.867652 2.298754 -1.858249
v 5.867652 2.274540 -1.115629
v 6.322149 2.329433 -1.858249
v 6.322149 2.353647 -1.858249
v 6.322149 2.353647 -1.115629
v 5.867652 2.298754 -1.115629
v 6.322149 2.329433 -1.115629
v 5.867652 2.308060 -1.115629
v 5.867652 2.308060 -1.858249
v 5.811295 2.006196 -1.858249
v 5.834449 2.049022 -1.858249
v 5.834449 2.049022 -1.115629
v 5.811295 2.006196 -1.115629
v 5.867652 2.006196 -1.858249
v 5.867652 2.006196 -1.115629
v 5.867652 2.015502 -1.858249
v 5.867652 2.039716 -1.858249
v 5.867652 2.015502 -1.115629
v 6.322149 2.070394 -1.858249
v 6.322149 2.094609 -1.858249
v 6.322149 2.094609 -1.115629
v 5.867652 2.039716 -1.115629
v 6.322149 2.070394 -1.115629
v 5.867652 2.049022 -1.115629
v 5.867652 2.049022 -1.858249
v 5.811295 1.488118 -1.858249
v 5.834449 1.530944 -1.858249
v 5.834449 1.530944 -1.115629
v 5.811295 1.488118 -1.115629
v 5.867652 1.488118 -1.858249
v 5.867652 1.488118 -1.115629
v 5.867652 1.497424 -1.858249
v 5.867652 1.521639 -1.858249
v 5.867652 1.497424 -1.115629
v 6.322149 1.552317 -1.858249
v 6.322149 1.576531 -1.858249
v 6.322149 1.576531 -1.115629
v 5.867652 1.521639 -1.115629
v 6.322149 1.552317 -1.115629
v 5.867652 1.530944 -1.115629
v 5.867652 1.530944 -1.858249
vn -0.1199 0.9928 -0.0000
vn -0.0000 -0.0000 -1.0000
vn -0.0000 1.0000 -0.0000
vn -0.0000 -0.0000 1.0000
vn -0.0000 -1.0000 -0.0000
vn -0.8797 0.4756 -0.0000
vn 1.0000 -0.0000 -0.0000
vn 0.1199 -0.9928 -0.0000
vt 0.534005 0.920320
vt 0.650450 0.955245
vt 0.633984 0.893611
vt 0.635405 0.890943
vt 0.629698 0.887678
vt 0.532352 0.914103
vt 0.633526 0.891864
vt 0.632331 0.887394
vt 0.737096 0.865646
vt 0.741150 0.862694
vt 0.734610 0.856312
vt 0.736637 0.863899
vt 0.634631 0.883020
vt 0.636658 0.890608
vt 0.632880 0.876466
vt 0.637116 0.892355
vt 0.533546 0.918573
vt 0.741209 0.857889
vt 0.753561 0.927281
vt 0.653582 0.953990
vt 0.550470 0.981954
vt 0.630892 0.892148
vt 0.756902 0.926807
vt 0.742403 0.862359
vt 0.732859 0.849757
s 0
usemtl New_Material
f 77/1/1 75/2/1 72/3/1
f 7/4/2 2/5/2 8/3/2
f 51/6/3 64/7/3 50/8/3
f 9/9/4 13/10/4 4/11/4
f 86/12/5 81/13/5 85/14/5
f 20/11/6 18/15/6 17/13/6
f 105/9/7 101/14/7 103/16/7
f 72/3/7 79/17/7 77/1/7
f 6/12/5 1/13/5 5/14/5
f 52/11/6 50/15/6 49/13/6
f 39/4/2 33/13/2 40/3/2
f 70/12/5 65/13/5 69/14/5
f 29/1/1 27/2/1 24/3/1
f 109/1/1 107/2/1 104/3/1
f 88/3/7 95/17/7 93/1/7
f 61/1/1 59/2/1 56/3/1
f 41/9/7 37/14/7 39/16/7
f 25/9/7 21/14/7 23/16/7
f 102/12/5 97/13/5 101/14/5
f 77/10/4 67/18/4 73/9/4
f 46/19/8 39/16/8 42/20/8
f 55/4/2 49/13/2 56/3/2
f 56/3/7 63/17/7 61/1/7
f 38/12/5 33/13/5 37/14/5
f 30/19/8 23/16/8 26/20/8
f 13/1/1 11/2/1 8/3/1
f 83/6/3 96/7/3 82/8/3
f 19/6/3 32/7/3 18/8/3
f 24/3/7 31/17/7 29/1/7
f 54/12/5 49/13/5 53/14/5
f 9/9/7 5/14/7 7/16/7
f 3/6/3 16/7/3 2/8/3
f 68/11/6 66/15/6 65/13/6
f 22/12/5 17/13/5 21/14/5
f 25/9/4 29/10/4 20/11/4
f 61/10/4 51/18/4 57/9/4
f 45/1/1 43/2/1 40/3/1
f 93/1/1 91/2/1 88/3/1
f 4/11/6 2/15/6 1/13/6
f 73/9/7 69/14/7 71/16/7
f 8/3/7 15/17/7 13/1/7
f 89/9/7 85/14/7 87/16/7
f 67/6/3 80/7/3 66/8/3
f 36/11/6 34/15/6 33/13/6
f 24/3/2 23/4/2 17/13/2
f 40/3/7 47/17/7 45/1/7
f 84/11/6 82/15/6 81/13/6
f 87/4/2 82/5/2 88/3/2
f 45/10/4 35/18/4 41/9/4
f 72/3/2 71/4/2 66/5/2
f 35/6/3 48/7/3 34/8/3
f 100/11/6 98/15/6 97/13/6
f 84/11/4 89/9/4 93/10/4
f 94/19/8 87/16/8 90/20/8
f 14/19/8 7/16/8 10/20/8
f 103/4/2 98/5/2 104/3/2
f 78/19/8 71/16/8 74/20/8
f 57/9/7 53/14/7 55/16/7
f 104/3/7 111/17/7 109/1/7
f 99/6/3 112/7/3 98/8/3
f 109/10/4 99/18/4 105/9/4
f 62/19/8 55/16/8 58/20/8
f 110/19/8 103/16/8 106/20/8
f 77/1/1 76/21/1 75/2/1
f 8/3/2 11/2/2 10/20/2
f 7/4/2 5/14/2 1/13/2
f 8/3/2 10/20/2 7/4/2
f 2/5/2 16/22/2 8/3/2
f 7/4/2 1/13/2 2/5/2
f 51/6/3 63/17/3 64/7/3
f 9/9/4 14/19/4 12/23/4
f 13/10/4 15/24/4 3/18/4
f 9/9/4 12/23/4 13/10/4
f 4/11/4 6/12/4 9/9/4
f 13/10/4 3/18/4 4/11/4
f 86/12/5 84/11/5 81/13/5
f 20/11/6 19/25/6 18/15/6
f 105/9/7 102/12/7 101/14/7
f 72/3/7 80/7/7 79/17/7
f 6/12/5 4/11/5 1/13/5
f 52/11/6 51/25/6 50/15/6
f 39/4/2 37/14/2 33/13/2
f 33/13/2 34/5/2 48/22/2
f 40/3/2 43/2/2 42/20/2
f 33/13/2 48/22/2 40/3/2
f 40/3/2 42/20/2 39/4/2
f 70/12/5 68/11/5 65/13/5
f 29/1/1 28/21/1 27/2/1
f 109/1/1 108/21/1 107/2/1
f 88/3/7 96/7/7 95/17/7
f 61/1/1 60/21/1 59/2/1
f 41/9/7 38/12/7 37/14/7
f 25/9/7 22/12/7 21/14/7
f 102/12/5 100/11/5 97/13/5
f 77/10/4 79/24/4 67/18/4
f 67/18/4 68/11/4 70/12/4
f 73/9/4 78/19/4 76/23/4
f 67/18/4 70/12/4 73/9/4
f 73/9/4 76/23/4 77/10/4
f 46/19/8 41/9/8 39/16/8
f 55/4/2 53/14/2 49/13/2
f 49/13/2 50/5/2 64/22/2
f 56/3/2 59/2/2 58/20/2
f 49/13/2 64/22/2 56/3/2
f 56/3/2 58/20/2 55/4/2
f 56/3/7 64/7/7 63/17/7
f 38/12/5 36/11/5 33/13/5
f 30/19/8 25/9/8 23/16/8
f 13/1/1 12/21/1 11/2/1
f 83/6/3 95/17/3 96/7/3
f 19/6/3 31/17/3 32/7/3
f 24/3/7 32/7/7 31/17/7
f 54/12/5 52/11/5 49/13/5
f 9/9/7 6/12/7 5/14/7
f 3/6/3 15/17/3 16/7/3
f 68/11/6 67/25/6 66/15/6
f 22/12/5 20/11/5 17/13/5
f 25/9/4 30/19/4 28/23/4
f 29/10/4 31/24/4 19/18/4
f 25/9/4 28/23/4 29/10/4
f 20/11/4 22/12/4 25/9/4
f 29/10/4 19/18/4 20/11/4
f 61/10/4 63/24/4 51/18/4
f 51/18/4 52/11/4 54/12/4
f 57/9/4 62/19/4 60/23/4
f 51/18/4 54/12/4 57/9/4
f 57/9/4 60/23/4 61/10/4
f 45/1/1 44/21/1 43/2/1
f 93/1/1 92/21/1 91/2/1
f 4/11/6 3/25/6 2/15/6
f 73/9/7 70/12/7 69/14/7
f 8/3/7 16/7/7 15/17/7
f 89/9/7 86/12/7 85/14/7
f 67/6/3 79/17/3 80/7/3
f 36/11/6 35/25/6 34/15/6
f 17/13/2 18/5/2 32/22/2
f 24/3/2 27/2/2 26/20/2
f 17/13/2 32/22/2 24/3/2
f 23/4/2 21/14/2 17/13/2
f 24/3/2 26/20/2 23/4/2
f 40/3/7 48/7/7 47/17/7
f 84/11/6 83/25/6 82/15/6
f 88/3/2 91/2/2 90/20/2
f 87/4/2 85/14/2 81/13/2
f 88/3/2 90/20/2 87/4/2
f 82/5/2 96/22/2 88/3/2
f 87/4/2 81/13/2 82/5/2
f 45/10/4 47/24/4 35/18/4
f 35/18/4 36/11/4 38/12/4
f 41/9/4 46/19/4 44/23/4
f 35/18/4 38/12/4 41/9/4
f 41/9/4 44/23/4 45/10/4
f 72/3/2 75/2/2 74/20/2
f 71/4/2 69/14/2 65/13/2
f 72/3/2 74/20/2 71/4/2
f 66/5/2 80/22/2 72/3/2
f 71/4/2 65/13/2 66/5/2
f 35/6/3 47/17/3 48/7/3
f 100/11/6 99/25/6 98/15/6
f 95/24/4 83/18/4 84/11/4
f 84/11/4 86/12/4 89/9/4
f 89/9/4 94/19/4 92/23/4
f 93/10/4 95/24/4 84/11/4
f 89/9/4 92/23/4 93/10/4
f 94/19/8 89/9/8 87/16/8
f 14/19/8 9/9/8 7/16/8
f 104/3/2 107/2/2 106/20/2
f 103/4/2 101/14/2 97/13/2
f 104/3/2 106/20/2 103/4/2
f 98/5/2 112/22/2 104/3/2
f 103/4/2 97/13/2 98/5/2
f 78/19/8 73/9/8 71/16/8
f 57/9/7 54/12/7 53/14/7
f 104/3/7 112/7/7 111/17/7
f 99/6/3 111/17/3 112/7/3
f 109/10/4 111/24/4 99/18/4
f 99/18/4 100/11/4 102/12/4
f 105/9/4 110/19/4 108/23/4
f 99/18/4 102/12/4 105/9/4
f 105/9/4 108/23/4 109/10/4
f 62/19/8 57/9/8 55/16/8
f 110/19/8 105/9/8 103/16/8
