# Blender 5.1.1
# www.blender.org
mtllib REF_Piso_completo_R2R.mtl
o REF_Piso_completo_r2r
v 6.869381 0.666871 -4.487069
v -4.506521 0.670265 -4.487069
v 6.869381 0.670265 -4.487069
v -4.506521 0.666871 -4.487069
v -4.506520 0.670267 2.538303
v -4.506520 0.666873 2.538303
v 6.869381 0.670267 2.538306
v 6.869381 0.666873 2.538303
v -4.555367 0.493258 4.689212
v -6.338737 0.614455 4.689212
v -6.338737 0.493258 4.689212
v -4.555367 0.614455 4.689212
v -6.324540 0.653769 4.676107
v -4.543155 0.653769 4.676107
v -6.338737 0.493257 2.566610
v -6.338737 0.614452 -4.539490
v -6.338737 0.493255 -4.539490
v -6.338737 0.614454 2.566610
v -6.324540 0.653766 -4.526384
v -6.324540 0.653769 2.559534
v -4.506520 0.666874 4.636794
v 6.870906 0.653769 4.676107
v 6.869381 0.666874 4.636794
v 6.871416 0.493258 4.689212
v 6.871416 0.614455 4.689212
v -6.281951 0.666871 -4.487069
v -6.281951 0.666873 2.538303
v -6.281951 0.666874 4.636794
vn -0.0000 -0.0000 -1.0000
vn -1.0000 -0.0000 -0.0000
vn -0.0000 -0.0000 1.0000
vn -0.0000 -0.0007 1.0000
vn 1.0000 -0.0000 -0.0000
vn 0.0001 0.1429 0.9897
vn -0.0000 0.1602 0.9871
vn -0.0571 0.9965 0.0618
vn -0.0000 0.3162 0.9487
vn -0.9880 0.1545 -0.0000
vn -0.9849 0.1731 -0.0000
vn -0.4881 0.8728 -0.0000
vn -0.2941 0.9558 -0.0000
vn -0.0000 0.9871 0.1602
vn -0.0000 0.9471 0.3208
vn -0.0000 0.9868 0.1619
vn -0.0000 1.0000 -0.0000
vn -0.0000 0.1596 0.9872
vn -0.1770 0.9842 -0.0000
vn -0.1481 0.9890 -0.0000
vn -0.1120 0.9863 0.1213
vt 0.836129 0.232126
vt 0.010115 0.234017
vt 0.836015 0.232240
vt 0.010000 0.233903
vt 0.011306 0.786530
vt 0.011192 0.786645
vt 0.837207 0.784752
vt 0.837323 0.784867
vt 0.986321 0.777991
vt 0.856848 0.768458
vt 0.856848 0.777991
vt 0.986322 0.768458
vt 0.857864 0.765171
vt 0.987223 0.765221
vt 0.845056 0.599230
vt 0.854586 0.040342
vt 0.845055 0.040344
vt 0.854588 0.599230
vt 0.845056 0.766170
vt 0.857844 0.041366
vt 0.854589 0.766174
vt 0.857839 0.598667
vt 0.013658 0.968372
vt 0.010975 0.971614
vt 0.839620 0.977208
vt 0.839534 0.973948
vt 0.014773 0.803333
vt 0.840649 0.808910
vt 0.839569 0.990000
vt 0.010065 0.974868
vt 0.010000 0.984400
vt 0.839634 0.980468
vt 0.861103 0.044450
vt 0.861084 0.596980
vt 0.990000 0.044452
vt 0.989973 0.596986
vt 0.989916 0.762007
vt 0.861039 0.761996
s 0
usemtl Mat_Piso
f 1/1/1 2/2/1 3/3/1
f 1/1/1 4/4/1 2/2/1
f 4/4/2 5/5/2 2/2/2
f 4/4/2 6/6/2 5/5/2
f 6/6/3 7/7/3 5/5/3
f 6/6/4 8/8/4 7/7/4
f 8/8/5 3/3/5 7/7/5
f 8/8/5 1/1/5 3/3/5
s 1
f 9/9/3 10/10/6 11/11/2
f 9/9/3 12/12/7 10/10/6
f 12/12/7 13/13/8 10/10/6
f 12/12/7 14/14/9 13/13/8
f 15/15/2 16/16/10 17/17/2
f 15/15/2 18/18/11 16/16/10
f 11/19/2 18/18/11 15/15/2
f 18/18/11 19/20/12 16/16/10
f 11/19/2 10/21/6 18/18/11
f 18/18/11 20/22/13 19/20/12
f 18/18/11 10/21/6 13/13/8
f 18/18/11 13/13/8 20/22/13
f 21/23/14 14/24/9 22/25/15
f 21/23/14 22/25/15 23/26/16
f 23/26/16 6/27/17 21/23/14
f 23/26/16 8/28/17 6/27/17
f 24/29/3 12/30/7 9/31/3
f 24/29/3 25/32/18 12/30/7
f 25/32/18 14/24/9 12/30/7
f 25/32/18 22/25/15 14/24/9
f 26/33/19 19/20/12 20/22/13
f 26/33/19 20/22/13 27/34/20
f 4/35/17 26/33/19 27/34/20
f 4/35/17 27/34/20 6/36/17
f 21/37/14 6/36/17 27/34/20
f 28/38/21 27/34/20 20/22/13
f 21/37/14 27/34/20 28/38/21
f 28/38/21 20/22/13 13/13/8
f 28/38/21 14/14/9 21/37/14
f 28/38/21 13/13/8 14/14/9
s 0
f 3/3/17 5/5/17 7/7/17
f 3/3/17 2/2/17 5/5/17
