# Blender 5.1.1
# www.blender.org
mtllib REF_Vidrio_Ventana_2.mtl
o REF_Ventana_2
v 0.709308 0.946570 2.743483
v 5.808537 2.990759 2.743483
v 0.709308 2.990759 2.743483
v 5.808537 0.946570 2.743483
v 5.808537 2.990759 2.723882
v 0.709308 2.990759 2.723882
v 5.808537 0.946570 2.723882
v 0.709308 0.946570 2.723882
vn -0.0000 -0.0000 1.0000
vn -0.0000 1.0000 -0.0000
vn -0.0000 -0.0000 -1.0000
vn -0.0000 -1.0000 -0.0000
vn 1.0000 -0.0000 -0.0000
vn -1.0000 -0.0000 -0.0000
vt 0.000000 1.000000
vt 1.000000 0.000000
vt 0.000000 0.000000
vt 1.000000 1.000000
s 0
usemtl Transparency
f 1/1/1 2/2/1 3/3/1
f 1/1/1 4/4/1 2/2/1
f 3/1/2 5/2/2 6/3/2
f 3/1/2 2/4/2 5/2/2
f 6/1/3 7/2/3 8/3/3
f 6/1/3 5/4/3 7/2/3
f 8/1/4 4/2/4 1/3/4
f 8/1/4 7/4/4 4/2/4
f 4/1/5 5/2/5 2/3/5
f 4/1/5 7/4/5 5/2/5
f 8/1/6 3/2/6 6/3/6
f 8/1/6 1/4/6 3/2/6
