# Blender 5.1.1
# www.blender.org
mtllib REF_Refri_Puerta_5.mtl
o REF_Refri_Puerta_5
v 5.777109 0.918498 -0.183496
v 5.777109 2.492827 -0.183496
v 5.777108 2.492826 -0.828963
v 5.777108 0.918498 -0.828963
v 5.783531 0.918498 -0.183496
v 5.783531 0.918498 -0.828963
v 5.783530 2.492827 -0.828963
v 5.783530 2.578811 -0.888289
v 5.783531 0.832513 -0.888289
v 5.783531 0.832513 -0.124173
v 5.768226 0.832513 -0.888289
v 5.768226 2.578811 -0.888289
v 5.768226 2.578811 -0.124173
v 5.768226 2.492827 -0.183496
v 5.768226 2.492827 -0.828963
v 5.768226 0.918498 -0.828963
v 5.774648 2.492827 -0.828963
v 5.774648 2.492827 -0.183496
v 5.774648 0.918498 -0.183496
v 5.774648 0.918498 -0.828963
v 5.768227 0.918498 -0.183496
v 5.768227 0.832513 -0.124173
v 5.783531 2.578811 -0.124173
v 5.783531 2.492827 -0.183496
v 5.719817 1.448878 -0.862660
v 5.719817 1.448878 -0.854022
v 5.750157 1.448878 -0.862660
v 5.750157 1.452896 -0.866984
v 5.750161 1.461363 -0.866984
v 5.730680 1.461363 -0.866987
v 5.750164 1.465381 -0.862660
v 5.750164 1.465381 -0.854022
v 5.734693 1.465381 -0.862660
v 5.734693 1.815427 -0.862660
v 5.734689 1.465381 -0.854022
v 5.730680 1.819445 -0.866987
v 5.723834 1.828187 -0.866987
v 5.752030 1.819445 -0.866984
v 5.752025 1.828186 -0.866984
v 5.752030 1.815427 -0.862660
v 5.752025 1.815427 -0.854022
v 5.734689 1.815427 -0.854022
v 5.730669 1.461363 -0.849701
v 5.730669 1.819445 -0.849701
v 5.723834 1.828187 -0.849698
v 5.752022 1.819445 -0.849698
v 5.752022 1.828186 -0.849698
v 5.752022 1.832204 -0.854022
v 5.752022 1.832204 -0.862660
v 5.719817 1.832204 -0.854022
v 5.719817 1.832204 -0.862660
v 5.723834 1.452896 -0.866987
v 5.723834 1.452896 -0.849701
v 5.750164 1.461363 -0.849701
v 5.750164 1.452896 -0.849701
v 5.750161 1.448878 -0.854022
vn -0.7328 -0.0000 -0.6804
vn -1.0000 -0.0000 -0.0000
vn 1.0000 -0.0000 -0.0000
vn -0.0000 1.0000 -0.0000
vn -0.0000 0.7324 0.6809
vn -0.0000 -0.0000 -1.0000
vn -0.0000 -0.7326 0.6807
vn -0.0000 -1.0000 -0.0000
vn -0.0000 -0.0000 1.0000
vn 0.0001 -0.7330 -0.6802
vn -0.0000 -0.7328 -0.6804
vn 0.0002 -0.7330 -0.6802
vn 0.0001 -0.7328 -0.6805
vn 0.0003 -0.0003 1.0000
vn 0.0001 -0.0001 1.0000
vn 0.0001 -0.0002 1.0000
vn 0.7328 -0.0000 -0.6804
vn 0.7332 -0.0005 -0.6801
vn -0.0000 0.7328 -0.6804
vn -0.0001 0.7331 -0.6801
vn -0.0001 0.7332 -0.6801
vn 0.7322 -0.0000 0.6811
vn -0.0000 0.7326 0.6807
vn -0.7325 -0.0000 0.6807
vn -0.0022 0.7348 0.6783
vn -0.7326 -0.0000 0.6806
vn 0.0001 0.7328 -0.6805
vn -0.0000 -0.7324 0.6809
vn 1.0000 -0.0000 0.0005
vn -0.0001 -0.7324 0.6809
vn 0.0004 -0.7326 -0.6806
vn 0.0001 -0.7326 -0.6806
vn 0.0001 -0.0000 -1.0000
vn 0.0004 0.0001 -1.0000
vn 0.0001 0.0001 -1.0000
vn 0.0001 0.0004 -1.0000
vn 0.0001 -0.0001 -1.0000
vn -0.0002 -0.0002 -1.0000
vn -0.0000 -0.7326 -0.6807
vn -0.0002 0.0003 1.0000
vn -0.0003 -0.0000 1.0000
vn -0.0003 -0.0001 1.0000
vn -0.0003 0.0002 1.0000
vn -0.0000 -0.0003 1.0000
vn -0.0003 0.0001 1.0000
vn 0.0003 -0.0002 1.0000
vn -0.0002 0.0002 1.0000
vn -0.0001 -0.0001 1.0000
vn -0.0005 -0.0004 1.0000
vn -0.0000 -0.0007 1.0000
vn 0.7329 -0.0001 -0.6804
vn 0.0001 0.7326 -0.6807
vn 0.0005 0.7326 -0.6806
vn 0.0003 0.7325 0.6808
vn 0.2374 0.2607 0.9358
vn -0.7324 -0.0000 0.6809
vn -0.0000 0.7326 -0.6807
vt 0.788846 0.969064
vt 0.837074 0.968576
vt 0.837085 0.969050
vt 0.983129 0.750187
vt 0.878184 0.577398
vt 0.982279 0.569120
vt 0.779309 0.984109
vt 0.771459 0.995487
vt 0.771459 0.764403
vt 0.977518 0.775784
vt 0.985369 0.764406
vt 0.985362 0.995489
vt 0.783043 0.516442
vt 0.776447 0.626188
vt 0.780306 0.519243
vt 0.892096 0.984110
vt 0.884254 0.764398
vt 0.892104 0.775777
vt 0.839735 0.972619
vt 0.836715 0.972219
vt 0.836904 0.971306
vt 0.600070 0.505129
vt 0.602113 0.509001
vt 0.786067 0.972621
vt 0.789275 0.972141
vt 0.786489 0.973387
vt 0.875222 0.575039
vt 0.783105 0.974690
vt 0.784870 0.873570
vt 0.785130 0.974685
vt 0.045115 0.977277
vt 0.057106 0.748469
vt 0.049110 0.977443
vt 1.000000 0.766515
vt 0.988009 0.995323
vt 0.996005 0.766349
vt 0.840801 0.968368
vt 0.836343 0.973524
vt 0.839291 0.973408
vt 0.838640 0.974690
vt 0.836776 0.967270
vt 0.788854 0.968613
vt 0.785937 0.965776
vt 0.789366 0.966427
vt 0.789158 0.967323
vt 0.789605 0.973320
vt 0.837154 0.969507
vt 0.840674 0.970139
vt 0.986090 0.566694
vt 0.986091 0.752547
vt 0.788842 0.969975
vt 0.837149 0.969981
vt 0.789103 0.971297
vt 0.864724 0.984110
vt 0.872574 0.764399
vt 0.872574 0.995489
vt 0.836510 0.966332
vt 0.598249 0.615945
vt 0.782584 0.873570
vt 0.780819 0.974690
vt 0.780559 0.873575
vt 0.785130 0.968459
vt 0.788840 0.969515
vt 0.778491 0.630061
vt 0.595512 0.618746
vt 0.875222 0.760893
vt 0.879034 0.758467
vt 0.785130 0.970139
vt 0.785428 0.971170
vt 0.839814 0.965530
vt 0.840371 0.971183
vt 0.864724 0.775777
vt 0.779310 0.775781
vt 0.884245 0.995489
vt 0.977512 0.984110
vt 0.782845 0.873575
vt 0.053110 0.748304
vt 0.992004 0.995489
vt 0.840559 0.967199
vt 0.785359 0.967403
vt 0.786492 0.964798
vt 0.787135 0.974618
vt 0.782845 0.974685
vt 0.839128 0.964531
s 0
usemtl MAT_Refri_1
f 51/1/1 52/2/1 25/3/1
f 20/4/2 18/5/2 17/6/2
f 6/7/3 9/8/3 8/9/3
f 15/10/2 12/11/2 11/12/2
f 5/13/4 4/14/4 1/15/4
f 21/16/2 13/17/2 14/18/2
f 54/19/5 35/20/5 43/21/5
f 24/22/6 1/15/6 2/23/6
f 46/24/7 42/25/7 41/26/7
f 14/27/8 17/6/8 18/5/8
f 22/28/8 9/29/8 10/30/8
f 13/31/9 10/32/9 23/33/9
f 8/34/6 11/35/6 12/36/6
f 52/2/10 27/37/11 25/3/12
f 33/38/4 32/39/4 31/40/4
f 30/41/6 52/2/6 37/42/6
f 38/43/13 34/44/13 36/45/13
f 34/46/8 41/26/8 42/25/8
f 26/47/8 27/37/8 56/48/8
f 20/4/9 15/49/9 16/50/9
f 45/51/14 53/52/15 44/53/16
f 5/54/3 23/55/3 10/56/3
f 30/41/17 34/44/18 33/57/17
f 3/58/8 24/22/8 2/23/8
f 23/59/4 12/60/4 13/61/4
f 49/62/19 37/42/20 51/1/21
f 50/63/2 25/3/2 26/47/2
f 3/58/9 6/64/9 7/65/9
f 21/66/6 18/5/6 19/67/6
f 4/14/3 2/23/3 1/15/3
f 42/25/22 43/21/22 35/20/22
s 1
f 48/68/23 45/51/24 47/69/23
s 0
f 50/63/25 53/52/26 45/51/26
f 16/50/4 19/67/4 20/4/4
f 33/57/27 29/70/27 30/41/27
f 48/68/4 51/1/4 50/63/4
f 53/52/28 56/48/28 55/71/28
f 42/25/29 33/38/29 34/46/29
f 51/1/1 37/42/1 52/2/1
f 20/4/2 19/67/2 18/5/2
f 6/7/3 5/54/3 10/56/3
f 8/9/3 23/55/3 24/72/3
f 8/9/3 24/72/3 7/73/3
f 6/7/3 10/56/3 9/8/3
f 8/9/3 7/73/3 6/7/3
f 15/10/2 14/18/2 13/17/2
f 11/12/2 22/74/2 21/16/2
f 11/12/2 21/16/2 16/75/2
f 15/10/2 13/17/2 12/11/2
f 11/12/2 16/75/2 15/10/2
f 5/13/4 6/64/4 4/14/4
f 21/16/2 22/74/2 13/17/2
f 54/19/5 32/39/5 35/20/5
f 24/22/6 5/13/6 1/15/6
f 46/24/30 44/53/30 42/25/30
f 14/27/8 15/49/8 17/6/8
f 22/28/8 11/76/8 9/29/8
f 13/31/9 22/77/9 10/32/9
f 8/34/6 9/78/6 11/35/6
f 52/2/31 28/79/32 27/37/32
f 33/38/4 35/20/4 32/39/4
f 39/80/33 38/43/33 36/45/34
f 30/41/33 29/70/33 28/79/33
f 37/42/35 39/80/35 36/45/36
f 30/41/37 28/79/37 52/2/37
f 37/42/6 36/45/38 30/41/6
f 38/43/39 40/81/39 34/44/39
f 34/46/8 40/82/8 41/26/8
f 26/47/8 25/3/8 27/37/8
f 20/4/9 17/6/9 15/49/9
f 53/52/40 55/71/41 54/19/42
f 53/52/43 54/19/41 43/21/44
f 46/24/45 47/69/41 45/51/46
f 53/52/42 43/21/47 44/53/44
f 44/53/48 46/24/49 45/51/50
f 5/54/3 24/72/3 23/55/3
f 30/41/51 36/45/17 34/44/17
f 3/58/8 7/65/8 24/22/8
f 23/59/4 8/83/4 12/60/4
f 49/62/52 39/80/52 37/42/53
f 50/63/2 51/1/2 25/3/2
f 3/58/9 4/14/9 6/64/9
f 21/66/6 14/27/6 18/5/6
f 4/14/3 3/58/3 2/23/3
f 42/25/22 44/53/22 43/21/22
s 1
f 48/68/23 50/63/54 45/51/24
s 0
f 50/63/55 26/47/56 53/52/56
f 16/50/4 21/66/4 19/67/4
f 33/57/57 31/84/57 29/70/57
f 48/68/4 49/62/4 51/1/4
f 53/52/28 26/47/28 56/48/28
f 42/25/29 35/20/29 33/38/29
