# Blender 5.1.1
# www.blender.org
mtllib REF_Hielo_Body.mtl
o REF_Hielo_Body
v -3.131837 1.450927 -1.464473
v -3.430682 2.240525 -1.482279
v -3.054985 1.450927 -2.757935
v -3.353836 2.240525 -2.775642
v -3.579066 2.567786 -1.706509
v -4.275033 2.567786 -1.747861
v -3.578857 2.571307 -1.710023
v -4.274824 2.571307 -1.751375
v -3.575342 2.567786 -1.709815
v -3.575342 2.216952 -1.709815
v -3.579066 2.567786 -1.706509
v -3.579066 2.216952 -1.706509
v -3.578857 2.571307 -1.710023
v -3.529382 2.571307 -2.542706
v -3.575342 2.567786 -1.709815
v -3.525868 2.567786 -2.542498
v -3.529382 2.571307 -2.542706
v -4.225349 2.571307 -2.584058
v -3.529174 2.567786 -2.546221
v -4.225141 2.567786 -2.587573
v -3.529174 2.567786 -2.546221
v -3.529174 2.216952 -2.546221
v -3.525868 2.567786 -2.542498
v -3.525868 2.216952 -2.542498
v -4.275033 2.567786 -1.747861
v -4.275033 2.216952 -1.747861
v -4.278338 2.567786 -1.751584
v -4.278338 2.216952 -1.751584
v -4.278338 2.567786 -1.751584
v -4.228864 2.567786 -2.584267
v -4.274824 2.571307 -1.751375
v -4.225349 2.571307 -2.584058
v -4.228864 2.567786 -2.584267
v -4.228864 2.216952 -2.584267
v -4.225141 2.567786 -2.587573
v -4.225141 2.216952 -2.587573
v -3.575342 2.567786 -1.709815
v -3.525868 2.567786 -2.542498
v -3.575342 2.216952 -1.709815
v -3.525868 2.216952 -2.542498
v -3.578857 2.571307 -1.710023
v -4.274824 2.571307 -1.751375
v -3.529382 2.571307 -2.542706
v -4.225349 2.571307 -2.584058
v -4.278338 2.567786 -1.751584
v -4.278338 2.216952 -1.751584
v -4.228864 2.567786 -2.584267
v -4.228864 2.216952 -2.584267
v -3.529174 2.567786 -2.546221
v -4.225141 2.567786 -2.587573
v -3.529174 2.216952 -2.546221
v -4.225141 2.216952 -2.587573
v -4.275033 2.567786 -1.747861
v -3.579066 2.567786 -1.706509
v -4.275033 2.216952 -1.747861
v -3.579066 2.216952 -1.706509
v -3.579066 2.567786 -1.706509
v -3.578857 2.571307 -1.710023
v -3.575342 2.567786 -1.709815
v -3.529382 2.571307 -2.542706
v -3.529174 2.567786 -2.546221
v -3.525868 2.567786 -2.542498
v -4.275033 2.567786 -1.747861
v -4.278338 2.567786 -1.751584
v -4.274824 2.571307 -1.751375
v -4.228864 2.567786 -2.584267
v -4.225141 2.567786 -2.587573
v -4.225349 2.571307 -2.584058
v -3.430682 2.240525 -1.482279
v -3.131837 1.450927 -1.464473
v -3.436599 2.239595 -1.476866
v -3.437407 2.245148 -1.482727
v -4.431333 2.239443 -1.535969
v -3.436599 2.239595 -1.476866
v -4.430994 2.245148 -1.541664
v -3.137871 1.449882 -1.459116
v -3.131837 0.672058 -1.464473
v -3.137871 0.672058 -1.459116
v -3.437407 2.245148 -1.482727
v -3.360521 2.245148 -2.776039
v -3.430682 2.240525 -1.482279
v -3.353836 2.240525 -2.775642
v -3.359070 2.239595 -2.781718
v -3.060342 1.449882 -2.763968
v -3.353836 2.240525 -2.775642
v -3.360521 2.245148 -2.776039
v -4.354142 2.245148 -2.835125
v -3.359070 2.239595 -2.781718
v -4.353804 2.239443 -2.840821
v -3.054985 1.450927 -2.757935
v -3.060342 0.672058 -2.763968
v -3.054985 0.672058 -2.757935
v -4.431333 2.239443 -1.535969
v -4.431333 0.675458 -1.535969
v -4.436689 2.239443 -1.542002
v -4.436689 0.672058 -1.542002
v -4.433001 0.672058 -1.536068
v -4.436689 2.239443 -1.542002
v -4.359837 2.239443 -2.835464
v -4.430994 2.245148 -1.541664
v -4.354142 2.245148 -2.835125
v -4.359837 2.239443 -2.835464
v -4.359837 0.672058 -2.835464
v -4.353804 2.239443 -2.840821
v -4.353804 0.675458 -2.840821
v -4.355472 0.672058 -2.840919
v -3.437407 2.245148 -1.482727
v -4.430994 2.245148 -1.541664
v -3.360521 2.245148 -2.776039
v -4.354142 2.245148 -2.835125
v -4.436689 2.239443 -1.542002
v -4.436689 0.672058 -1.542002
v -4.359837 2.239443 -2.835464
v -4.359837 0.672058 -2.835464
v -3.060342 1.449882 -2.763968
v -3.359070 2.239595 -2.781718
v -4.353804 0.675458 -2.840821
v -4.353804 2.239443 -2.840821
v -4.431333 2.239443 -1.535969
v -3.436599 2.239595 -1.476866
v -4.431333 0.675458 -1.535969
v -3.137871 1.449882 -1.459116
v -3.131837 1.450927 -1.464473
v -3.054985 1.450927 -2.757935
v -3.131837 0.672058 -1.464473
v -3.054985 0.672058 -2.757935
v -3.060342 1.449882 -2.763968
v -4.353804 0.675458 -2.840821
v -3.060342 0.672058 -2.763968
v -4.355472 0.672058 -2.840919
v -4.431333 0.675458 -1.535969
v -3.137871 1.449882 -1.459116
v -4.433001 0.672058 -1.536068
v -3.137871 0.672058 -1.459116
v -4.431333 2.239443 -1.535969
v -4.436689 2.239443 -1.542002
v -4.430994 2.245148 -1.541664
v -4.359837 2.239443 -2.835464
v -4.353804 2.239443 -2.840821
v -4.354142 2.245148 -2.835125
v -3.144601 1.639273 -2.453648
v -3.350685 2.072396 -1.753904
v -3.113754 1.557590 -2.450676
v -3.154333 1.554982 -1.751033
v -3.401206 2.205527 -1.754643
v -3.359480 2.208251 -2.474322
v -3.944750 1.335363 -2.501190
v -4.150833 1.768486 -1.801446
v -4.201355 1.901617 -1.802185
v -4.159629 1.904341 -2.521864
v -4.224882 1.228964 -2.517834
v -4.430965 1.662087 -1.818090
v -4.194034 1.147281 -2.514862
v -4.234614 1.144673 -1.815219
v -3.144166 1.637982 -2.452721
v -3.350250 2.071105 -1.752977
v -3.944315 1.334072 -2.500263
v -4.150398 1.767195 -1.800519
v -4.046636 1.296665 -2.507243
v -4.252719 1.729788 -1.807499
v -4.015788 1.214983 -2.504271
v -4.056367 1.212374 -1.804628
vn 0.9334 0.3545 0.0555
vn -0.0593 -0.0000 0.9982
vn 0.0593 -0.0000 -0.9982
vn -0.6639 -0.0000 -0.7478
vn -0.7478 -0.0000 0.6640
vn -0.7059 0.7071 -0.0419
vn 0.6455 0.1313 0.7524
vn 0.6639 -0.0000 0.7478
vn 0.6455 0.1312 0.7524
vn -0.9982 -0.0000 -0.0593
vn -0.0000 1.0000 -0.0000
vn -0.5647 -0.8246 -0.0336
vn -0.5671 -0.8230 -0.0337
vn 0.0419 -0.7071 -0.7059
vn 0.9982 -0.0000 0.0593
vn 0.5421 0.5773 0.6106
vn -0.6106 -0.5773 0.5421
vn -0.6106 0.5773 0.5421
vn -0.5421 0.5774 -0.6106
vn 0.0419 -0.7072 -0.7058
vn 0.0412 -0.7217 -0.6910
vn 0.2322 -0.8835 -0.4069
vn 0.6282 0.2545 0.7352
vn -0.0405 0.7149 0.6980
vn 0.2939 0.5514 0.7807
vn 0.7109 0.2545 -0.6557
vn 0.7300 0.1312 -0.6707
vn 0.3841 0.5505 -0.7412
vn -0.0411 -0.7189 0.6939
vn -0.0420 -0.7072 0.7058
vn 0.1800 -0.8825 0.4345
vn 0.0425 0.7135 -0.6994
vn 0.7478 -0.0000 -0.6639
vn -0.7479 0.0003 0.6638
vn -0.7478 -0.0000 0.6639
vn -0.7479 0.0004 0.6638
vn -0.7882 0.3725 0.4899
vn -0.6641 0.0005 -0.7477
vn -0.6640 0.0002 -0.7477
vn -0.7246 0.3725 -0.5798
vn -0.7059 -0.7071 -0.0419
vn 0.7300 0.1313 -0.6707
vn -0.5421 0.5773 -0.6106
vn 0.0639 -0.0122 -0.9979
vn -0.9334 -0.3545 -0.0555
vn 0.0537 0.0148 -0.9984
vn 0.3541 -0.9350 0.0170
vn -0.0639 0.0121 0.9979
vn -0.0537 -0.0148 0.9984
vn -0.3541 0.9350 -0.0171
vn -0.0639 0.0122 0.9979
vn 0.2429 -0.5105 -0.8248
vn -0.2429 0.5105 0.8248
vn 0.3541 -0.9350 0.0171
vn -0.2641 0.7834 -0.5627
vn -0.0419 -0.7071 0.7059
vn -0.0420 -0.7071 0.7059
vt 0.133330 0.586100
vt 0.123975 0.760154
vt 0.146122 0.624843
vt 0.237804 0.768381
vt 0.245997 0.589879
vt 0.235055 0.726558
vt 0.646201 0.761786
vt 0.741499 0.814275
vt 0.743744 0.764805
vt 0.374405 0.769248
vt 0.204208 0.878987
vt 0.383713 0.976632
vt 0.647915 0.806775
vt 0.648578 0.806450
vt 0.788850 0.820779
vt 0.742128 0.814322
vt 0.742051 0.814987
vt 0.374284 0.768255
vt 0.379177 0.599679
vt 0.378099 0.599795
vt 0.133423 0.585043
vt 0.028327 0.577294
vt 0.775624 0.934382
vt 0.728698 0.929353
vt 0.247090 0.589808
vt 0.238891 0.768568
vt 0.741384 0.814970
vt 0.648547 0.807021
vt 0.020395 0.758792
vt 0.637174 0.915458
vt 0.637073 0.916016
vt 0.636504 0.915566
vt 0.728044 0.929216
vt 0.728005 0.929927
vt 0.378339 0.598819
vt 0.247050 0.588641
vt 0.246298 0.588823
vt 0.585965 0.774589
vt 0.589532 0.601939
vt 0.123974 0.761215
vt 0.237993 0.769463
vt 0.238817 0.769722
vt 0.624179 0.960892
vt 0.589097 0.600851
vt 0.589582 0.601005
vt 0.585486 0.775659
vt 0.375364 0.768424
vt 0.375342 0.769507
vt 0.589582 0.911166
vt 0.600971 0.801644
vt 0.585977 0.775524
vt 0.020396 0.759926
vt 0.023467 0.933947
vt 0.775547 0.935047
vt 0.728621 0.930018
vt 0.220015 0.626136
vt 0.153081 0.719538
vt 0.719141 0.976632
vt 0.624802 0.961140
vt 0.048297 0.403255
vt 0.028467 0.576170
vt 0.219845 0.476969
vt 0.404804 0.392922
vt 0.141434 0.718995
vt 0.239221 0.627213
vt 0.000000 0.000000
vt 0.645539 0.761899
vt 0.788927 0.820114
vt 0.379198 0.598596
vt 0.023014 0.934178
vt 0.047868 0.402981
s 0
usemtl lambert2.001
f 1/1/1 3/2/1 144/3/1
f 4/4/1 2/5/1 146/6/1
f 56/7/2 53/8/2 55/9/2
f 118/10/3 115/11/3 117/12/3
f 9/13/4 12/7/4 11/14/4
f 28/15/5 25/16/5 27/17/5
f 101/18/6 98/19/6 100/20/6
s 1
f 76/21/7 77/22/8 70/1/9
s 0
f 48/23/10 45/17/10 47/24/10
f 110/18/11 107/25/11 109/26/11
s 1
f 79/25/12 82/4/13 81/5/12
s 0
f 5/14/14 8/27/14 7/28/14
f 126/29/15 123/1/15 125/22/15
f 57/14/16 59/13/16 58/28/16
f 60/30/17 61/31/17 62/32/17
f 63/8/18 65/27/18 64/17/18
f 66/24/19 68/33/19 67/34/19
s 1
f 73/35/20 72/25/21 74/36/22
f 69/5/23 72/25/24 71/37/25
s 0
f 111/19/10 114/38/10 112/39/10
s 1
f 85/4/26 84/40/27 83/41/28
f 86/26/29 89/10/30 88/42/31
f 83/41/28 86/26/32 85/4/26
f 76/21/7 69/5/23 71/37/25
s 0
f 24/43/33 21/31/33 23/32/33
s 1
f 94/44/34 95/19/35 96/39/36
f 97/45/37 94/44/34 96/39/36
f 105/46/38 102/47/4 104/48/4
s 0
f 40/49/15 37/13/15 39/50/15
s 1
f 103/38/39 105/46/38 106/51/40
f 32/33/6 29/17/6 31/27/6
s 0
f 129/52/3 128/53/3 127/40/3
f 36/54/4 33/24/4 35/55/4
f 13/28/41 16/32/41 15/13/41
f 148/56/1 157/57/1 150/6/1
s 1
f 92/29/33 84/40/27 90/2/42
s 0
f 44/33/11 41/28/11 43/30/11
f 135/35/18 137/20/18 136/19/18
f 138/47/43 140/18/43 139/10/43
f 49/31/2 52/58/2 51/59/2
f 131/60/2 134/61/2 132/21/2
f 119/35/3 122/62/3 121/63/3
f 151/57/44 161/64/44 153/64/44
f 141/57/45 156/56/45 142/56/45
f 142/56/46 149/65/46 145/65/46
f 145/65/47 150/6/47 146/6/47
f 146/6/48 147/57/48 141/57/48
f 154/3/49 160/56/49 152/56/49
f 143/64/50 154/3/50 144/3/50
f 144/3/46 152/56/46 142/56/46
f 143/64/51 151/57/51 153/64/51
f 162/3/1 159/57/1 160/56/1
f 142/56/52 158/56/52 148/56/52
f 141/57/53 157/57/53 155/57/53
f 153/64/54 162/3/54 154/3/54
f 152/66/55 159/66/55 151/66/55
f 17/30/56 20/34/56 19/31/56
f 142/56/1 2/5/1 1/1/1
f 3/2/1 141/57/1 143/64/1
f 144/3/1 142/56/1 1/1/1
f 3/2/1 143/64/1 144/3/1
f 141/57/1 3/2/1 4/4/1
f 2/5/1 142/56/1 145/65/1
f 146/6/1 141/57/1 4/4/1
f 2/5/1 145/65/1 146/6/1
f 56/7/2 54/14/2 53/8/2
f 118/10/3 116/42/3 115/11/3
f 9/13/4 10/67/4 12/7/4
f 28/15/5 26/68/5 25/16/5
f 101/18/6 99/47/6 98/19/6
s 1
f 76/21/7 78/61/8 77/22/8
s 0
f 48/23/10 46/15/10 45/17/10
f 110/18/11 108/20/11 107/25/11
s 1
f 79/25/12 80/26/13 82/4/13
s 0
f 5/14/14 6/8/14 8/27/14
f 126/29/15 124/2/15 123/1/15
s 1
f 73/35/20 75/20/14 72/25/21
s 0
f 111/19/10 113/47/10 114/38/10
s 1
f 85/4/26 90/2/42 84/40/27
f 86/26/29 87/18/57 89/10/30
f 76/21/7 70/1/9 69/5/23
s 0
f 24/43/33 22/59/33 21/31/33
s 1
f 94/44/34 93/69/35 95/19/35
f 105/46/38 103/38/39 102/47/4
s 0
f 40/49/15 38/32/15 37/13/15
s 1
f 32/33/6 30/24/6 29/17/6
s 0
f 129/52/3 130/70/3 128/53/3
f 36/54/4 34/23/4 33/24/4
f 13/28/41 14/30/41 16/32/41
f 148/56/1 158/56/1 157/57/1
f 157/57/1 147/57/1 150/6/1
f 150/6/1 149/65/1 148/56/1
s 1
f 92/29/33 91/52/33 84/40/27
s 0
f 44/33/11 42/27/11 41/28/11
f 49/31/2 50/34/2 52/58/2
f 131/60/2 133/71/2 134/61/2
f 119/35/3 120/36/3 122/62/3
f 151/57/44 159/57/44 161/64/44
f 141/57/45 155/57/45 156/56/45
f 142/56/46 148/56/46 149/65/46
f 145/65/47 149/65/47 150/6/47
f 146/6/48 150/6/48 147/57/48
f 154/3/49 162/3/49 160/56/49
f 143/64/50 153/64/50 154/3/50
f 144/3/46 154/3/46 152/56/46
f 143/64/51 141/57/51 151/57/51
f 162/3/1 161/64/1 159/57/1
f 142/56/52 156/56/52 158/56/52
f 141/57/53 147/57/53 157/57/53
f 153/64/54 161/64/54 162/3/54
f 152/66/55 160/66/55 159/66/55
f 17/30/56 18/33/56 20/34/56
