# Blender 5.1.1
# www.blender.org
mtllib REF_Refri_Puerta_4.mtl
o REF_Refri_Puerta_4
v 5.777108 0.918498 -1.812391
v 5.777108 2.492826 -1.166921
v 5.777108 0.918498 -1.166921
v 5.777108 2.492827 -1.812391
v 5.774648 0.918498 -1.812391
v 5.774648 2.492827 -1.166921
v 5.774648 2.492827 -1.812391
v 5.774648 0.918498 -1.166921
v 5.783530 0.832513 -1.871714
v 5.768226 0.832513 -1.107596
v 5.768226 0.832513 -1.871714
v 5.783530 0.832513 -1.107596
v 5.768226 2.578811 -1.107596
v 5.783530 2.578811 -1.107596
v 5.768226 2.578811 -1.871714
v 5.783530 2.578811 -1.871714
v 5.783530 0.918498 -1.812391
v 5.783530 2.492827 -1.812391
v 5.783530 2.492827 -1.166921
v 5.783530 0.918498 -1.166921
v 5.768226 0.918498 -1.812391
v 5.768226 0.918498 -1.166921
v 5.768226 2.492827 -1.166921
v 5.768226 2.492827 -1.812391
v 5.719817 1.448878 -1.141860
v 5.719817 1.448878 -1.133225
v 5.723835 1.452896 -1.146187
v 5.730668 1.461363 -1.146187
v 5.730668 1.819445 -1.146187
v 5.723835 1.828186 -1.146187
v 5.719817 1.832204 -1.141860
v 5.719817 1.832204 -1.133225
v 5.752021 1.819445 -1.146187
v 5.752021 1.828186 -1.146187
v 5.752021 1.832204 -1.141860
v 5.752021 1.832204 -1.133225
v 5.752025 1.828186 -1.128901
v 5.752030 1.819445 -1.128901
v 5.730680 1.819445 -1.128901
v 5.752030 1.815427 -1.133225
v 5.734693 1.815427 -1.133225
v 5.734689 1.465380 -1.141860
v 5.734693 1.465380 -1.133225
v 5.734689 1.815427 -1.141860
v 5.752025 1.815427 -1.141860
v 5.750164 1.465380 -1.141860
v 5.750164 1.465380 -1.133225
v 5.730680 1.461363 -1.128901
v 5.750162 1.461363 -1.128901
v 5.723835 1.452896 -1.128901
v 5.723835 1.828186 -1.128901
v 5.750157 1.452896 -1.128901
v 5.750157 1.448878 -1.133225
v 5.750162 1.448878 -1.141860
v 5.750164 1.452896 -1.146187
v 5.750164 1.461363 -1.146187
vn -0.0000 1.0000 -0.0000
vn -0.0000 0.7326 0.6807
vn 0.7325 -0.0000 -0.6808
vn -1.0000 -0.0000 -0.0000
vn -0.0000 0.7328 -0.6804
vn 1.0000 -0.0000 -0.0000
vn 1.0000 -0.0000 -0.0005
vn -0.7328 -0.0000 -0.6804
vn -0.0000 -1.0000 -0.0000
vn -0.0000 -0.0000 -1.0000
vn -0.0000 -0.0000 1.0000
vn -0.0000 -0.7326 0.6807
vn -0.0000 0.7326 0.6806
vn -0.7326 -0.0000 0.6806
vn -0.0000 -0.7328 -0.6804
vn 0.7330 -0.0000 0.6803
vt 0.788846 0.969064
vt 0.785130 0.970139
vt 0.788840 0.969515
vt 0.839814 0.965530
vt 0.836510 0.966332
vt 0.836776 0.967270
vt 0.836904 0.971306
vt 0.789275 0.972141
vt 0.836715 0.972219
vt 0.782584 0.873570
vt 0.780819 0.974690
vt 0.782845 0.974685
vt 0.884245 0.995489
vt 0.892104 0.775777
vt 0.884254 0.764398
vt 0.986091 0.752547
vt 0.879034 0.758467
vt 0.875222 0.760893
vt 0.788842 0.969975
vt 0.785428 0.971170
vt 0.780306 0.519243
vt 0.598249 0.615945
vt 0.776447 0.626188
vt 0.983129 0.750187
vt 0.878184 0.577398
vt 0.836343 0.973524
vt 0.789605 0.973320
vt 0.977512 0.984110
vt 0.985362 0.995489
vt 0.985369 0.764406
vt 0.837149 0.969981
vt 0.786489 0.973387
vt 0.057106 0.748469
vt 0.045115 0.977277
vt 0.049110 0.977443
vt 0.600070 0.505129
vt 0.783043 0.516442
vt 0.840801 0.968368
vt 0.837074 0.968576
vt 0.837085 0.969050
vt 0.788854 0.968613
vt 0.785130 0.968459
vt 0.839735 0.972619
vt 0.986090 0.566694
vt 0.784870 0.873570
vt 0.783105 0.974690
vt 0.785130 0.974685
vt 0.839291 0.973408
vt 0.595512 0.618746
vt 0.602113 0.509001
vt 0.786067 0.972621
vt 0.789103 0.971297
vt 0.875222 0.575039
vt 0.982279 0.569120
vt 0.837154 0.969507
vt 0.789366 0.966427
vt 0.785937 0.965776
vt 0.789158 0.967323
vt 0.778491 0.630061
vt 0.771459 0.995487
vt 0.779310 0.775781
vt 0.771459 0.764403
vt 0.872574 0.764399
vt 0.864724 0.984110
vt 0.872574 0.995489
vt 1.000000 0.766515
vt 0.988009 0.995323
vt 0.992004 0.995489
vt 0.840674 0.970139
vt 0.840371 0.971183
vt 0.839128 0.964531
vt 0.780559 0.873575
vt 0.892096 0.984110
vt 0.977518 0.775784
vt 0.787135 0.974618
vt 0.053110 0.748304
vt 0.840559 0.967199
vt 0.785359 0.967403
vt 0.782845 0.873575
vt 0.838640 0.974690
vt 0.786492 0.964798
vt 0.779309 0.984109
vt 0.864724 0.775777
vt 0.996005 0.766349
s 0
usemtl MAT_Refri_1
f 32/1/1 35/2/1 31/3/1
s 1
f 49/4/2 43/5/2 48/6/2
s 0
f 28/7/3 44/8/3 42/9/3
f 16/10/1 13/11/1 14/12/1
f 11/13/4 24/14/4 15/15/4
f 22/16/1 5/17/1 21/18/1
f 30/19/5 35/2/5 34/20/5
f 1/21/6 2/22/6 3/23/6
f 8/24/4 7/25/4 5/17/4
f 43/26/7 44/8/7 41/27/7
f 22/28/4 10/29/4 13/30/4
f 27/31/8 31/3/8 30/19/8
f 45/32/9 41/27/9 44/8/9
f 9/33/10 15/34/10 16/35/10
f 18/36/11 1/21/11 17/37/11
s 1
f 53/38/12 50/39/12 26/40/12
f 51/41/13 36/42/2 32/1/13
s 0
f 42/9/5 56/43/5 28/7/5
f 32/1/14 50/39/14 51/41/14
f 23/44/10 8/24/10 22/16/10
f 12/45/9 11/46/9 9/47/9
f 43/26/1 46/48/1 42/9/1
f 19/49/9 4/50/9 18/36/9
f 33/51/15 44/8/15 29/52/15
f 24/53/9 6/54/9 23/44/9
f 21/18/11 7/25/11 24/53/11
f 25/55/9 53/38/9 26/40/9
f 41/56/12 38/57/12 39/58/12
f 20/59/10 2/22/10 19/49/10
f 39/58/11 51/41/11 50/39/11
f 12/60/6 19/61/6 14/62/6
f 16/63/6 17/64/6 9/65/6
f 14/66/11 10/67/11 12/68/11
f 26/40/4 31/3/4 25/55/4
f 48/6/16 41/56/16 39/58/16
f 54/69/15 27/31/15 55/70/15
f 27/31/10 30/19/10 28/7/10
f 17/37/1 3/23/1 20/59/1
f 32/1/1 36/42/1 35/2/1
s 1
f 49/4/2 47/71/2 43/5/2
s 0
f 28/7/3 29/52/3 44/8/3
f 16/10/1 15/72/1 13/11/1
f 11/13/4 21/73/4 24/14/4
f 22/16/1 8/24/1 5/17/1
f 30/19/5 31/3/5 35/2/5
f 1/21/6 4/50/6 2/22/6
f 8/24/4 6/54/4 7/25/4
f 43/26/7 42/9/7 44/8/7
f 22/28/4 21/73/4 11/13/4
f 13/30/4 15/15/4 24/14/4
f 13/30/4 24/14/4 23/74/4
f 22/28/4 11/13/4 10/29/4
f 13/30/4 23/74/4 22/28/4
f 27/31/8 25/55/8 31/3/8
f 45/32/9 40/75/9 41/27/9
f 9/33/10 11/76/10 15/34/10
f 18/36/11 4/50/11 1/21/11
s 1
f 53/38/12 52/77/12 50/39/12
f 51/41/13 37/78/2 36/42/2
s 0
f 42/9/5 46/48/5 56/43/5
f 32/1/14 26/40/14 50/39/14
f 23/44/10 6/54/10 8/24/10
f 12/45/9 10/79/9 11/46/9
f 43/26/1 47/80/1 46/48/1
f 19/49/9 2/22/9 4/50/9
f 33/51/15 45/32/15 44/8/15
f 24/53/9 7/25/9 6/54/9
f 21/18/11 5/17/11 7/25/11
f 25/55/9 54/69/9 53/38/9
f 41/56/12 40/81/12 38/57/12
f 20/59/10 3/23/10 2/22/10
f 39/58/11 38/57/11 37/78/11
f 50/39/11 52/77/11 49/4/11
f 50/39/11 49/4/11 48/6/11
f 39/58/11 37/78/11 51/41/11
f 50/39/11 48/6/11 39/58/11
f 12/60/6 9/65/6 17/64/6
f 12/60/6 17/64/6 20/82/6
f 18/83/6 16/63/6 14/62/6
f 12/60/6 20/82/6 19/61/6
f 19/61/6 18/83/6 14/62/6
f 16/63/6 18/83/6 17/64/6
f 14/66/11 13/84/11 10/67/11
f 26/40/4 32/1/4 31/3/4
f 48/6/16 43/5/16 41/56/16
f 54/69/15 25/55/15 27/31/15
f 30/19/10 34/20/10 33/51/10
f 30/19/10 33/51/10 29/52/10
f 56/43/10 55/70/10 27/31/10
f 30/19/10 29/52/10 28/7/10
f 28/7/10 56/43/10 27/31/10
f 17/37/1 1/21/1 3/23/1
