# Blender 5.1.1
# www.blender.org
mtllib REF_Refri_Puerta_2.mtl
o REF_Refri_Puerta_2
v 5.777108 0.918498 -3.349190
v 5.777108 0.918498 -2.703720
v 5.777108 2.492826 -2.703720
v 5.777108 2.492827 -3.349190
v 5.783530 0.918498 -3.349190
v 5.783530 0.918498 -2.703720
v 5.783530 2.492827 -2.703720
v 5.783530 2.578811 -2.644397
v 5.783530 0.832513 -2.644397
v 5.783530 0.832513 -3.408518
v 5.768226 0.832513 -2.644397
v 5.768226 2.578811 -2.644397
v 5.768226 2.578811 -3.408518
v 5.768226 2.492827 -3.349190
v 5.768226 2.492827 -2.703720
v 5.768226 0.918498 -2.703720
v 5.774648 2.492827 -2.703720
v 5.774648 2.492827 -3.349190
v 5.774648 0.918498 -3.349190
v 5.774648 0.918498 -2.703720
v 5.768226 0.918498 -3.349190
v 5.768226 0.832513 -3.408518
v 5.783530 2.578811 -3.408518
v 5.783530 2.492827 -3.349190
v 5.719817 1.448878 -2.678661
v 5.719817 1.448878 -2.670026
v 5.750157 1.448878 -2.670026
v 5.750162 1.448878 -2.678661
v 5.719817 1.832204 -2.678661
v 5.719817 1.832204 -2.670026
v 5.752021 1.832204 -2.678661
v 5.752021 1.832204 -2.670026
v 5.734689 1.465380 -2.678661
v 5.734693 1.815427 -2.670026
v 5.734693 1.465380 -2.670026
v 5.734689 1.815427 -2.678661
v 5.750164 1.465380 -2.678661
v 5.750164 1.465380 -2.670026
v 5.750157 1.452896 -2.665702
v 5.750162 1.461363 -2.665702
v 5.730680 1.461363 -2.665702
v 5.723835 1.452896 -2.665702
v 5.730680 1.819445 -2.665702
v 5.723835 1.828186 -2.665702
v 5.752030 1.819445 -2.665702
v 5.752025 1.828186 -2.665702
v 5.750164 1.461363 -2.682986
v 5.750164 1.452896 -2.682986
v 5.730668 1.461363 -2.682986
v 5.723835 1.452896 -2.682986
v 5.730668 1.819445 -2.682986
v 5.723835 1.828186 -2.682986
v 5.752021 1.819445 -2.682986
v 5.752021 1.828186 -2.682986
v 5.752030 1.815427 -2.670026
v 5.752025 1.815427 -2.678661
vn -0.0000 0.7326 0.6807
vn -1.0000 -0.0000 -0.0000
vn -0.0000 1.0000 -0.0000
vn -0.0000 -1.0000 -0.0000
vn 1.0000 -0.0000 -0.0000
vn -0.0000 -0.0000 1.0000
vn 0.7323 -0.0000 -0.6810
vn 1.0000 -0.0000 -0.0005
vn 0.7330 -0.0000 0.6803
vn -0.0000 -0.0000 -1.0000
vn -0.0000 -0.7326 -0.6807
vn -0.0000 -0.7326 0.6806
vn -0.0000 -0.7326 0.6807
vn -0.0000 0.7326 -0.6807
vn -0.0000 0.7326 -0.6806
vn -0.7326 -0.0000 -0.6806
vn -0.7326 -0.0000 0.6806
vn -0.0000 0.7326 0.6806
vt 0.836510 0.966332
vt 0.839814 0.965530
vt 0.839128 0.964531
vt 0.837085 0.969050
vt 0.788840 0.969515
vt 0.837154 0.969507
vt 0.782584 0.873570
vt 0.780819 0.974690
vt 0.782845 0.974685
vt 0.595512 0.618746
vt 0.602113 0.509001
vt 0.600070 0.505129
vt 0.771459 0.995487
vt 0.872574 0.995489
vt 0.779309 0.984109
vt 0.786489 0.973387
vt 0.789605 0.973320
vt 0.789275 0.972141
vt 0.776447 0.626188
vt 0.780306 0.519243
vt 0.785130 0.968459
vt 0.788854 0.968613
vt 0.785359 0.967403
vt 1.000000 0.766515
vt 0.988009 0.995323
vt 0.992004 0.995489
vt 0.836904 0.971306
vt 0.789103 0.971297
vt 0.836343 0.973524
vt 0.836715 0.972219
vt 0.839291 0.973408
vt 0.836776 0.967270
vt 0.789366 0.966427
vt 0.789158 0.967323
vt 0.983129 0.750187
vt 0.878184 0.577398
vt 0.879034 0.758467
vt 0.598249 0.615945
vt 0.778491 0.630061
vt 0.783043 0.516442
vt 0.840801 0.968368
vt 0.864724 0.775777
vt 0.872574 0.764399
vt 0.771459 0.764403
vt 0.977518 0.775784
vt 0.985362 0.995489
vt 0.985369 0.764406
vt 0.986090 0.566694
vt 0.982279 0.569120
vt 0.837149 0.969981
vt 0.788842 0.969975
vt 0.875222 0.575039
vt 0.875222 0.760893
vt 0.884245 0.995489
vt 0.977512 0.984110
vt 0.892096 0.984110
vt 0.840674 0.970139
vt 0.837074 0.968576
vt 0.783105 0.974690
vt 0.784870 0.873570
vt 0.782845 0.873575
vt 0.786067 0.972621
vt 0.839735 0.972619
vt 0.785130 0.970139
vt 0.986091 0.752547
vt 0.788846 0.969064
vt 0.045115 0.977277
vt 0.057106 0.748469
vt 0.053110 0.748304
vt 0.785937 0.965776
vt 0.786492 0.964798
vt 0.780559 0.873575
vt 0.779310 0.775781
vt 0.864724 0.984110
vt 0.787135 0.974618
vt 0.996005 0.766349
vt 0.838640 0.974690
vt 0.884254 0.764398
vt 0.892104 0.775777
vt 0.840371 0.971183
vt 0.785428 0.971170
vt 0.840559 0.967199
vt 0.785130 0.974685
vt 0.049110 0.977443
s 0
usemtl MAT_Refri_1
f 35/1/1 40/2/1 38/3/1
f 26/4/2 29/5/2 25/6/2
f 23/7/3 12/8/3 8/9/3
f 7/10/4 4/11/4 24/12/4
f 9/13/5 10/14/5 6/15/5
f 56/16/4 34/17/4 36/18/4
f 4/11/5 2/19/5 1/20/5
f 32/21/1 44/22/1 46/23/1
f 8/24/6 11/25/6 9/26/6
f 36/18/7 49/27/7 51/28/7
f 36/18/8 35/29/8 33/30/8
f 35/29/3 37/31/3 33/30/3
f 41/32/9 34/33/9 43/34/9
f 20/35/2 18/36/2 19/37/2
f 3/38/10 6/39/10 2/19/10
f 24/12/6 1/20/6 5/40/6
f 25/6/4 27/41/4 26/4/4
f 24/42/5 23/43/5 8/44/5
f 15/45/2 11/46/2 12/47/2
f 20/35/10 15/48/10 17/49/10
f 49/27/10 50/50/10 52/51/10
f 14/52/4 17/49/4 15/48/4
f 21/53/6 18/36/6 14/52/6
f 22/54/2 16/55/2 21/56/2
f 50/50/11 28/57/11 25/6/11
f 43/34/6 44/22/6 42/58/6
s 1
f 27/41/12 42/58/13 26/4/13
s 0
f 22/59/4 9/60/4 11/61/4
f 36/18/11 53/62/11 56/16/11
f 5/40/3 2/19/3 6/39/3
f 47/63/14 33/30/14 37/31/14
f 31/64/15 52/51/15 29/5/15
f 16/65/3 19/37/3 21/53/3
f 50/50/16 29/5/16 52/51/16
f 32/21/3 29/5/3 30/66/3
f 42/58/17 30/66/17 26/4/17
f 13/67/10 10/68/10 22/69/10
f 45/70/13 34/33/13 55/71/13
f 35/1/1 41/32/1 40/2/1
f 26/4/2 30/66/2 29/5/2
f 23/7/3 13/72/3 12/8/3
f 7/10/4 3/38/4 4/11/4
f 7/73/5 8/44/5 9/13/5
f 10/14/5 24/42/5 5/74/5
f 6/15/5 7/73/5 9/13/5
f 10/14/5 5/74/5 6/15/5
f 56/16/4 55/75/4 34/17/4
f 4/11/5 3/38/5 2/19/5
f 32/21/18 30/66/18 44/22/18
f 8/24/6 12/76/6 11/25/6
f 36/18/7 33/30/7 49/27/7
f 36/18/8 34/17/8 35/29/8
f 35/29/3 38/77/3 37/31/3
f 41/32/9 35/1/9 34/33/9
f 20/35/2 17/49/2 18/36/2
f 3/38/10 7/10/10 6/39/10
f 24/12/6 4/11/6 1/20/6
f 25/6/4 28/57/4 27/41/4
f 8/44/5 7/73/5 24/42/5
f 24/42/5 10/14/5 23/43/5
f 13/78/2 14/79/2 15/45/2
f 15/45/2 16/55/2 11/46/2
f 12/47/2 13/78/2 15/45/2
f 20/35/10 16/65/10 15/48/10
f 49/27/10 47/63/10 48/80/10
f 52/51/10 54/81/10 53/62/10
f 52/51/10 53/62/10 51/28/10
f 49/27/10 48/80/10 50/50/10
f 52/51/10 51/28/10 49/27/10
f 14/52/4 18/36/4 17/49/4
f 21/53/6 19/37/6 18/36/6
f 14/79/2 13/78/2 22/54/2
f 22/54/2 11/46/2 16/55/2
f 21/56/2 14/79/2 22/54/2
f 50/50/11 48/80/11 28/57/11
f 39/82/6 40/2/6 41/32/6
f 43/34/6 45/70/6 46/23/6
f 42/58/6 39/82/6 41/32/6
f 43/34/6 46/23/6 44/22/6
f 42/58/6 41/32/6 43/34/6
s 1
f 27/41/12 39/82/12 42/58/13
s 0
f 22/59/4 10/83/4 9/60/4
f 36/18/11 51/28/11 53/62/11
f 5/40/3 1/20/3 2/19/3
f 47/63/14 49/27/14 33/30/14
f 31/64/14 54/81/14 52/51/14
f 16/65/3 20/35/3 19/37/3
f 50/50/16 25/6/16 29/5/16
f 32/21/3 31/64/3 29/5/3
f 42/58/17 44/22/17 30/66/17
f 13/67/10 23/84/10 10/68/10
f 45/70/13 43/34/13 34/33/13
