# Blender 5.1.1
# www.blender.org
mtllib REF_Rack_Rack_Refri_6.mtl
o REF_Rack_Refri_6
v 5.811297 1.747157 0.630758
v 5.834454 1.789983 -0.111857
v 5.811297 1.747157 -0.111857
v 5.834454 1.789983 0.630758
v 5.867658 1.747157 0.630758
v 5.867654 1.747157 -0.111857
v 5.867654 1.756463 -0.111857
v 5.867654 1.780677 -0.111857
v 5.867654 1.789983 -0.111857
v 5.867658 1.789983 0.630758
v 5.867657 1.756463 0.630760
v 5.867657 1.780677 0.630760
v 6.322153 1.835570 0.630760
v 6.322153 1.811355 0.630760
v 6.322153 1.835570 -0.111857
v 6.322153 1.811355 -0.111857
v 5.811296 1.488118 0.630758
v 5.811296 1.488118 -0.111857
v 5.834452 1.530944 -0.111857
v 5.834452 1.530944 0.630758
v 5.867657 1.488118 0.630758
v 5.867656 1.497424 0.630760
v 5.867656 1.521639 0.630760
v 5.867653 1.488118 -0.111857
v 5.867653 1.497424 -0.111857
v 6.322151 1.576531 0.630760
v 6.322151 1.552317 0.630760
v 6.322151 1.552317 -0.111857
v 5.867653 1.521639 -0.111857
v 6.322151 1.576531 -0.111857
v 5.867653 1.530944 -0.111857
v 5.867657 1.530944 0.630758
v 5.811296 2.006196 0.630758
v 5.811296 2.006196 -0.111857
v 5.834452 2.049022 -0.111857
v 5.834452 2.049022 0.630758
v 5.867657 2.006196 0.630758
v 5.867656 2.015502 0.630760
v 5.867656 2.039716 0.630760
v 5.867653 2.006196 -0.111857
v 5.867653 2.015502 -0.111857
v 6.322151 2.094609 0.630760
v 6.322151 2.070394 0.630760
v 6.322151 2.070394 -0.111857
v 5.867653 2.039716 -0.111857
v 6.322151 2.094609 -0.111857
v 5.867653 2.049022 -0.111857
v 5.867657 2.049022 0.630758
v 5.811296 2.265234 0.630758
v 5.811296 2.265234 -0.111857
v 5.834452 2.308060 -0.111857
v 5.834452 2.308060 0.630758
v 5.867657 2.265234 0.630758
v 5.867656 2.274540 0.630760
v 5.867656 2.298754 0.630760
v 5.867653 2.265234 -0.111857
v 5.867653 2.274540 -0.111857
v 6.322151 2.353647 0.630760
v 6.322151 2.329433 0.630760
v 6.322151 2.329433 -0.111857
v 5.867653 2.298754 -0.111857
v 6.322151 2.353647 -0.111857
v 5.867653 2.308060 -0.111857
v 5.867657 2.308060 0.630758
v 5.809173 0.970041 -0.107149
v 5.832327 1.012867 -0.107149
v 5.832327 1.012867 0.635466
v 5.809173 0.970041 0.635466
v 5.865532 0.970041 -0.107149
v 5.865532 0.970041 0.635466
v 5.865530 0.979347 -0.107149
v 5.865530 1.003561 -0.107149
v 5.865530 0.979347 0.635468
v 6.320026 1.034240 -0.107149
v 6.320026 1.058454 -0.107149
v 6.320026 1.058454 0.635468
v 5.865530 1.003561 0.635468
v 6.320026 1.034240 0.635468
v 5.865532 1.012867 0.635466
v 5.865532 1.012867 -0.107149
v 5.809173 1.229080 -0.107149
v 5.832327 1.271906 -0.107149
v 5.832327 1.271906 0.635466
v 5.809173 1.229080 0.635466
v 5.865532 1.229080 -0.107149
v 5.865532 1.229080 0.635466
v 5.865530 1.238385 -0.107149
v 5.865530 1.262600 -0.107149
v 5.865530 1.238385 0.635468
v 6.320026 1.293278 -0.107149
v 6.320026 1.317493 -0.107149
v 6.320026 1.317493 0.635468
v 5.865530 1.262600 0.635468
v 6.320026 1.293278 0.635468
v 5.865532 1.271906 0.635466
v 5.865532 1.271906 -0.107149
vn -0.1199 0.9928 -0.0000
vn 1.0000 -0.0000 -0.0000
vn 1.0000 -0.0003 -0.0000
vn -0.0000 -1.0000 -0.0000
vn 0.1199 -0.9928 -0.0000
vn -0.0000 -0.0000 1.0000
vn -0.8796 0.4756 -0.0000
vn -0.0001 -0.0000 1.0000
vn -0.0000 -0.0000 -1.0000
vn -0.8797 0.4756 -0.0000
vn 1.0000 0.0003 -0.0000
vn -0.0004 0.0001 1.0000
vn -0.0003 -0.0001 1.0000
vn -0.0001 -0.0003 1.0000
vn -0.0000 1.0000 -0.0000
vn 1.0000 -0.0001 -0.0000
vn -0.0000 0.0003 1.0000
vn -0.0000 -0.0003 1.0000
vn 1.0000 0.0001 -0.0000
vn -0.0004 -0.0003 1.0000
vn -0.0002 0.0003 1.0000
vn 0.0001 -0.0003 1.0000
vn -0.0006 -0.0006 1.0000
vn -0.0000 0.0006 1.0000
vn -0.0001 -0.0006 1.0000
vn -0.0000 -0.0006 1.0000
vn -0.0004 0.0002 1.0000
vt 0.550470 0.981954
vt 0.633984 0.893611
vt 0.650450 0.955245
vt 0.633526 0.891864
vt 0.534005 0.920320
vt 0.533546 0.918573
vt 0.736637 0.863899
vt 0.634631 0.883020
vt 0.734610 0.856312
vt 0.753561 0.927281
vt 0.637116 0.892355
vt 0.737096 0.865646
vt 0.741150 0.862694
vt 0.636658 0.890608
vt 0.632880 0.876466
vt 0.632145 0.891814
vt 0.629698 0.887678
vt 0.635405 0.890943
vt 0.740437 0.865173
vt 0.737890 0.863565
vt 0.632331 0.887394
vt 0.532352 0.914103
vt 0.653582 0.953990
vt 0.756902 0.926807
vt 0.742403 0.862359
vt 0.741209 0.857889
vt 0.732859 0.849757
vt 0.630892 0.892148
s 0
usemtl New_Material
f 46/1/1 39/2/1 42/3/1
f 30/1/1 23/2/1 26/3/1
f 88/2/3 95/6/3 93/5/3
f 32/4/2 29/5/2 31/6/2
f 73/12/6 77/13/6 68/9/6
f 41/12/2 37/14/2 40/7/2
f 36/15/7 34/9/7 33/8/7
f 22/11/8 23/16/8 20/17/8
f 88/2/9 87/18/9 82/17/9
f 29/19/9 25/20/9 18/9/9
f 40/7/4 33/8/4 34/9/4
f 68/9/10 66/15/10 65/8/10
f 71/18/9 65/8/9 72/2/9
f 84/9/6 89/12/6 93/13/6
f 71/11/11 70/7/11 69/14/11
f 38/11/8 39/16/12 36/17/8
f 25/12/2 21/14/2 24/7/2
f 45/19/9 41/20/9 34/9/9
s 1
f 44/10/5 38/11/5 41/12/5
s 0
f 7/12/2 5/14/2 6/7/2
f 84/9/10 82/15/10 81/8/10
f 20/15/7 18/9/7 17/8/7
f 77/5/1 75/3/1 72/2/1
f 7/20/9 3/9/9 8/19/9
f 11/11/6 12/16/13 1/8/14
f 31/6/15 20/21/15 32/4/15
f 70/7/4 65/8/4 69/14/4
s 1
f 16/10/5 11/11/5 7/12/5
s 0
f 9/6/15 4/21/15 10/4/15
f 47/6/15 36/21/15 48/4/15
f 87/11/11 86/7/11 85/14/11
f 72/2/3 79/6/3 77/5/3
f 24/7/4 17/8/4 18/9/4
f 48/4/2 45/5/2 47/6/2
f 1/8/4 6/7/4 5/14/4
f 83/22/15 96/4/15 82/21/15
f 28/10/5 22/11/5 25/12/5
f 86/7/4 81/8/4 85/14/4
f 67/22/15 80/4/15 66/21/15
f 93/5/1 91/3/1 88/2/1
f 78/10/5 71/11/5 74/23/5
f 4/15/7 3/9/7 1/8/7
f 12/2/1 15/1/1 8/5/1
f 10/4/2 8/5/2 9/6/2
f 94/10/5 87/11/5 90/23/5
f 46/1/1 45/5/1 39/2/1
f 30/1/1 29/5/1 23/2/1
f 88/2/3 96/4/3 95/6/3
f 32/4/16 23/2/16 29/5/16
f 73/12/6 78/10/6 76/24/6
f 77/13/17 79/25/17 67/26/17
f 73/12/6 76/24/6 77/13/6
f 68/9/18 70/7/18 73/12/18
f 77/13/8 67/26/8 68/9/8
f 41/12/19 38/11/19 37/14/19
f 36/15/7 35/27/7 34/9/7
f 20/17/6 17/8/6 21/14/6
f 22/11/6 27/23/6 26/3/6
f 20/17/20 21/14/20 22/11/20
f 23/16/17 32/28/17 20/17/17
f 22/11/6 26/3/6 23/16/6
f 88/2/9 91/3/9 90/23/9
f 87/18/9 85/14/9 81/8/9
f 88/2/9 90/23/9 87/18/9
f 82/17/9 96/28/9 88/2/9
f 87/18/9 81/8/9 82/17/9
f 18/9/9 19/26/9 31/25/9
f 29/19/9 30/24/9 28/10/9
f 18/9/9 31/25/9 29/19/9
f 25/20/9 24/7/9 18/9/9
f 29/19/9 28/10/9 25/20/9
f 40/7/4 37/14/4 33/8/4
f 68/9/10 67/27/10 66/15/10
f 71/18/9 69/14/9 65/8/9
f 65/8/9 66/17/9 80/28/9
f 72/2/9 75/3/9 74/23/9
f 65/8/9 80/28/9 72/2/9
f 72/2/9 74/23/9 71/18/9
f 95/25/6 83/26/6 84/9/6
f 84/9/18 86/7/18 89/12/18
f 89/12/6 94/10/6 92/24/6
f 93/13/21 95/25/21 84/9/21
f 89/12/6 92/24/6 93/13/6
f 71/11/11 73/12/11 70/7/11
f 36/17/6 33/8/18 37/14/22
f 38/11/6 43/23/6 42/3/6
f 36/17/20 37/14/23 38/11/20
f 39/16/24 48/28/24 36/17/17
f 38/11/6 42/3/6 39/16/18
f 25/12/19 22/11/19 21/14/19
f 34/9/9 35/26/9 47/25/9
f 45/19/9 46/24/9 44/10/9
f 34/9/9 47/25/9 45/19/9
f 41/20/9 40/7/9 34/9/9
f 45/19/9 44/10/9 41/20/9
s 1
f 44/10/5 43/23/5 38/11/5
s 0
f 7/12/19 11/11/19 5/14/19
f 84/9/10 83/27/10 82/15/10
f 20/15/7 19/27/7 18/9/7
f 77/5/1 76/1/1 75/3/1
f 15/24/9 16/10/9 7/20/9
f 7/20/9 6/7/9 3/9/9
f 3/9/9 2/26/9 9/25/9
f 8/19/9 15/24/9 7/20/9
f 3/9/9 9/25/9 8/19/9
f 11/11/6 14/23/6 13/3/6
f 12/16/24 10/28/24 4/17/17
f 11/11/6 13/3/6 12/16/18
f 1/8/25 5/14/26 11/11/18
f 12/16/27 4/17/8 1/8/22
f 31/6/15 19/22/15 20/21/15
f 70/7/4 68/9/4 65/8/4
s 1
f 16/10/5 14/23/5 11/11/5
s 0
f 9/6/15 2/22/15 4/21/15
f 47/6/15 35/22/15 36/21/15
f 87/11/11 89/12/11 86/7/11
f 72/2/3 80/4/3 79/6/3
f 24/7/4 21/14/4 17/8/4
f 48/4/16 39/2/16 45/5/16
f 1/8/4 3/9/4 6/7/4
f 83/22/15 95/6/15 96/4/15
f 28/10/5 27/23/5 22/11/5
f 86/7/4 84/9/4 81/8/4
f 67/22/15 79/6/15 80/4/15
f 93/5/1 92/1/1 91/3/1
f 78/10/5 73/12/5 71/11/5
f 4/15/7 2/27/7 3/9/7
f 12/2/1 13/3/1 15/1/1
f 10/4/16 12/2/16 8/5/16
f 94/10/5 89/12/5 87/11/5
usemtl New_Material.001
f 64/4/2 61/5/2 63/6/2
f 56/7/4 49/8/4 50/9/4
f 62/1/1 55/2/1 58/3/1
s 1
f 60/10/5 54/11/5 57/12/5
f 52/15/7 50/9/7 49/8/7
s 0
f 55/16/8 52/17/8 54/11/8
f 57/20/9 50/9/9 61/19/9
f 63/6/15 52/21/15 64/4/15
f 57/12/2 53/14/2 56/7/2
f 64/4/16 55/2/16 61/5/16
f 56/7/4 53/14/4 49/8/4
f 62/1/1 61/5/1 55/2/1
s 1
f 60/10/5 59/23/5 54/11/5
f 52/15/7 51/27/7 50/9/7
s 0
f 59/23/6 58/3/6 55/16/6
f 55/16/17 64/28/17 52/17/17
f 52/17/6 49/8/6 53/14/6
f 54/11/6 59/23/6 55/16/6
f 52/17/20 53/14/20 54/11/20
f 62/24/9 60/10/9 57/20/9
f 57/20/9 56/7/9 50/9/9
f 50/9/9 51/26/9 63/25/9
f 61/19/9 62/24/9 57/20/9
f 50/9/9 63/25/9 61/19/9
f 63/6/15 51/22/15 52/21/15
f 57/12/19 54/11/19 53/14/19
